<svg width="22" height="22" viewBox="0 0 22 22" fill="none" xmlns="http://www.w3.org/2000/svg">
<circle cx="11" cy="11" r="10.5" stroke="white"/>
<path d="M15.8923 5.06706C15.8154 5.00555 15.7231 4.99017 15.6308 5.00555L8.24615 6.5433C8.10769 6.57405 8 6.69707 8 6.85085V13.1249C7.58462 12.6635 6.98462 12.3867 6.30769 12.3867C5.03077 12.3867 4 13.417 4 14.6934C4 15.9697 5.03077 17 6.30769 17C7.58462 17 8.61538 15.9697 8.61538 14.6934V9.23436L15.3846 7.81963V11.5717C14.9692 11.1104 14.3538 10.8336 13.6923 10.8336C12.4154 10.8336 11.3846 11.8639 11.3846 13.1402C11.3846 14.4166 12.4154 15.4469 13.6923 15.4469C14.9692 15.4469 16 14.4166 16 13.1402V5.29772C16 5.20545 15.9538 5.11319 15.8923 5.06706ZM6.30769 16.3695C5.36923 16.3695 4.61538 15.616 4.61538 14.678C4.61538 13.74 5.36923 12.9865 6.30769 12.9865C7.24615 12.9865 8 13.74 8 14.678C8 15.616 7.24615 16.3695 6.30769 16.3695ZM13.6923 14.8318C12.7538 14.8318 12 14.0783 12 13.1402C12 12.2022 12.7538 11.4487 13.6923 11.4487C14.6308 11.4487 15.3846 12.2022 15.3846 13.1402C15.3846 14.0783 14.6308 14.8318 13.6923 14.8318ZM15.3846 7.20453L8.61538 8.61926V7.09689L15.3846 5.68216V7.20453Z" fill="white"/>
</svg>
