<svg width="10" height="10" viewBox="0 0 10 10" fill="none" xmlns="http://www.w3.org/2000/svg">
<path d="M1.96762 8.92718C1.92653 8.92685 1.88681 8.91235 1.85517 8.88613C1.05154 8.23611 0.46923 7.35291 0.188437 6.35818C-0.092357 5.36344 -0.0578146 4.30612 0.287306 3.33183C0.632427 2.35755 1.27115 1.51424 2.11549 0.918058C2.95983 0.32188 3.96825 0.0021656 5.00186 0.00295142C5.76617 0.000686959 6.52063 0.175404 7.20614 0.513417C7.24849 0.534499 7.28074 0.571532 7.2958 0.616379C7.31086 0.661225 7.3075 0.710216 7.28646 0.752587C7.27618 0.773711 7.26183 0.792598 7.24424 0.808164C7.22664 0.823731 7.20614 0.83567 7.18392 0.843298C7.1617 0.850926 7.1382 0.854092 7.11475 0.852615C7.0913 0.851137 7.06838 0.845046 7.04729 0.83469C6.00756 0.324114 4.81447 0.22084 3.70247 0.54516C2.59046 0.86948 1.63995 1.59794 1.03771 2.58741C0.453557 3.54743 0.237609 4.6868 0.429964 5.79399C0.622319 6.90118 1.20991 7.90096 2.08363 8.60769C2.10184 8.62255 2.11693 8.64086 2.12804 8.66156C2.13915 8.68226 2.14607 8.70496 2.14839 8.72834C2.15071 8.75172 2.14839 8.77533 2.14157 8.79781C2.13475 8.8203 2.12355 8.84121 2.10862 8.85936C2.09181 8.88063 2.07038 8.89779 2.04595 8.90954C2.02152 8.9213 1.99473 8.92733 1.96762 8.92718ZM5.00186 9.99809C4.2044 10.0003 3.4182 9.80983 2.71011 9.443C2.66798 9.42123 2.63623 9.38361 2.62184 9.33842C2.60744 9.29323 2.61159 9.24418 2.63337 9.20205C2.65514 9.15992 2.69276 9.12816 2.73795 9.11377C2.78314 9.09938 2.83219 9.10352 2.87432 9.1253C3.77376 9.58957 4.80034 9.74703 5.79758 9.57368C6.79482 9.40033 7.70804 8.90569 8.39805 8.16513C9.08807 7.42457 9.51703 6.47872 9.61957 5.47173C9.7221 4.46474 9.49259 3.45184 8.966 2.58741C8.68869 2.13374 8.33621 1.73056 7.92365 1.39513C7.88714 1.36543 7.86385 1.3225 7.85883 1.2757C7.85382 1.2289 7.86749 1.18202 7.89688 1.14525C7.91161 1.12692 7.92981 1.11167 7.95045 1.1004C7.97109 1.08912 7.99376 1.08204 8.01714 1.07955C8.04053 1.07706 8.06418 1.07922 8.08673 1.0859C8.10928 1.09258 8.13028 1.10365 8.14854 1.11848C8.59236 1.47946 8.97142 1.91344 9.26942 2.40178C9.73067 3.15944 9.98195 4.0262 9.99747 4.91307C10.013 5.79995 9.79219 6.67497 9.35774 7.4483C8.92329 8.22163 8.29084 8.86539 7.52534 9.31349C6.75984 9.76159 5.88887 9.99788 5.00186 9.99809Z" fill="#D9D9D9"/>
<path d="M4.82368 9.81956C4.77944 9.81944 4.73682 9.80291 4.70409 9.77315C4.03366 9.17202 3.52277 8.41405 3.21715 7.56708C2.87816 6.75303 2.69646 5.88215 2.68164 5.00047C2.6836 4.11684 2.86582 3.24289 3.21715 2.43208C3.55226 1.60094 4.05894 0.849833 4.70409 0.227796C4.73957 0.199301 4.78461 0.185436 4.82998 0.189036C4.87535 0.192637 4.91763 0.213431 4.94818 0.247167C4.97873 0.280903 4.99523 0.325032 4.99432 0.370532C4.99341 0.416032 4.97515 0.459466 4.94328 0.491953C4.33366 1.07868 3.85439 1.78715 3.53667 2.5713C3.20778 3.33892 3.03835 4.16537 3.03865 5.00047C3.05011 5.8351 3.21971 6.65998 3.53846 7.43143C3.827 8.22981 4.3098 8.94381 4.94328 9.509C4.96991 9.5332 4.98861 9.56489 4.99691 9.59991C5.00521 9.63492 5.00273 9.67163 4.9898 9.70521C4.97687 9.73879 4.95408 9.76768 4.92444 9.78809C4.89479 9.8085 4.85967 9.81946 4.82368 9.81956Z" fill="#D9D9D9"/>
<path d="M5.18047 9.81957C5.14448 9.81948 5.10936 9.80851 5.07972 9.7881C5.05007 9.7677 5.02729 9.73881 5.01436 9.70522C5.00142 9.67164 4.99895 9.63493 5.00725 9.59992C5.01555 9.5649 5.03424 9.53321 5.06088 9.50901C5.69436 8.94382 6.17715 8.22983 6.4657 7.43145C6.78445 6.65999 6.95405 5.83511 6.96551 5.00049C6.96581 4.16539 6.79637 3.33894 6.46748 2.57131C6.14976 1.78717 5.6705 1.07869 5.06088 0.491967C5.0419 0.476734 5.02625 0.457784 5.01487 0.43628C5.00349 0.414777 4.99663 0.391175 4.9947 0.366923C4.99278 0.342671 4.99583 0.318281 5.00367 0.295252C5.01152 0.272223 5.02399 0.251041 5.04032 0.233006C5.05665 0.214972 5.0765 0.200466 5.09864 0.19038C5.12078 0.180293 5.14475 0.174839 5.16907 0.174352C5.1934 0.173865 5.21757 0.178356 5.24009 0.187549C5.26262 0.196742 5.28303 0.210443 5.30007 0.22781C5.94844 0.848986 6.4582 1.60016 6.79593 2.43209C7.14419 3.24355 7.32337 4.11747 7.32252 5.00049C7.3077 5.88216 7.12599 6.75305 6.787 7.5671C6.47935 8.41481 5.96596 9.17285 5.29293 9.77317C5.26204 9.80132 5.22224 9.81775 5.18047 9.81957Z" fill="#D9D9D9"/>
<path d="M9.82105 5.179H0.182879C0.135542 5.179 0.0901439 5.16019 0.0566715 5.12672C0.0231991 5.09325 0.00439453 5.04785 0.00439453 5.00051C0.00439453 4.95317 0.0231991 4.90778 0.0566715 4.8743C0.0901439 4.84083 0.135542 4.82203 0.182879 4.82203H9.82105C9.86838 4.82203 9.91378 4.84083 9.94726 4.8743C9.98073 4.90778 9.99953 4.95317 9.99953 5.00051C9.99953 5.04785 9.98073 5.09325 9.94726 5.12672C9.91378 5.16019 9.86838 5.179 9.82105 5.179ZM9.10711 2.68021H0.896818C0.849481 2.68021 0.804082 2.66141 0.77061 2.62793C0.737138 2.59446 0.718333 2.54906 0.718333 2.50173C0.718333 2.45439 0.737138 2.40899 0.77061 2.37552C0.804082 2.34205 0.849481 2.32324 0.896818 2.32324H9.10711C9.15445 2.32324 9.19984 2.34205 9.23332 2.37552C9.26679 2.40899 9.28559 2.45439 9.28559 2.50173C9.28559 2.54906 9.26679 2.59446 9.23332 2.62793C9.19984 2.66141 9.15445 2.68021 9.10711 2.68021ZM9.10711 7.67778H0.896818C0.849481 7.67778 0.804082 7.65898 0.77061 7.6255C0.737138 7.59203 0.718333 7.54663 0.718333 7.4993C0.718333 7.45196 0.737138 7.40656 0.77061 7.37309C0.804082 7.33962 0.849481 7.32081 0.896818 7.32081H9.10711C9.15445 7.32081 9.19984 7.33962 9.23332 7.37309C9.26679 7.40656 9.28559 7.45196 9.28559 7.4993C9.28559 7.54663 9.26679 7.59203 9.23332 7.6255C9.19984 7.65898 9.15445 7.67778 9.10711 7.67778Z" fill="#D9D9D9"/>
<path d="M5.00175 9.81981C4.9544 9.81981 4.909 9.80101 4.87552 9.76753C4.84205 9.73406 4.82324 9.68866 4.82324 9.64132V0.360125C4.82324 0.312788 4.84205 0.26739 4.87552 0.233918C4.909 0.200445 4.9544 0.181641 5.00175 0.181641C5.04909 0.181641 5.09449 0.200445 5.12797 0.233918C5.16144 0.26739 5.18025 0.312788 5.18025 0.360125V9.64132C5.18025 9.68866 5.16144 9.73406 5.12797 9.76753C5.09449 9.80101 5.04909 9.81981 5.00175 9.81981Z" fill="#D9D9D9"/>
</svg>
