<svg width="14" height="10" viewBox="0 0 14 10" fill="none" xmlns="http://www.w3.org/2000/svg">
<path d="M4.40514 5.69802C5.03709 5.33908 5.44542 4.63018 5.44542 3.97513C5.44542 3.04189 4.61903 2.00098 3.50098 2.00098C2.38292 2.00098 1.55653 3.04189 1.55653 3.97513C1.55653 4.63018 1.96487 5.33908 2.59681 5.69802C1.09959 6.06593 0.000976562 7.33118 0.000976562 8.82077C0.000976562 8.91947 0.0884766 9.00023 0.195421 9.00023H6.80653C6.91348 9.00023 7.00098 8.91947 7.00098 8.82077C7.00098 7.33118 5.90237 6.06593 4.40514 5.69802ZM1.94542 3.97513C1.94542 3.05087 2.77181 2.35991 3.50098 2.35991C4.23014 2.35991 5.05653 3.05087 5.05653 3.97513C5.05653 4.89939 4.23014 5.59034 3.50098 5.59034C2.77181 5.59034 1.94542 4.89939 1.94542 3.97513ZM0.399588 8.6413C0.49681 7.14274 1.85792 5.94928 3.50098 5.94928C5.14403 5.94928 6.50514 7.14274 6.60237 8.6413H0.399588Z" fill="#D9D9D9"/>
<path d="M10.2915 5.28247C11.1942 4.7697 11.7774 3.75699 11.7774 2.82119C11.7774 1.488 10.597 0.000976562 8.99996 0.000976562C7.4029 0.000976562 6.22247 1.488 6.22247 2.82119C6.22247 3.75699 6.80575 4.7697 7.70843 5.28247C5.56977 5.80805 4.00049 7.61555 4.00049 9.74353C4.00049 9.88454 4.12548 9.99992 4.27824 9.99992H13.7217C13.8744 9.99992 13.9994 9.88454 13.9994 9.74353C13.9994 7.61555 12.4301 5.80805 10.2915 5.28247ZM6.77797 2.82119C6.77797 1.50082 7.9584 0.513743 8.99996 0.513743C10.0415 0.513743 11.2219 1.50082 11.2219 2.82119C11.2219 4.14156 10.0415 5.12864 8.99996 5.12864C7.9584 5.12864 6.77797 4.14156 6.77797 2.82119ZM4.56987 9.48715C4.70875 7.34635 6.65298 5.6414 8.99996 5.6414C11.3469 5.6414 13.2912 7.34635 13.43 9.48715H4.56987Z" fill="#D9D9D9"/>
</svg>
