<svg width="12" height="12" viewBox="0 0 12 12" fill="none" xmlns="http://www.w3.org/2000/svg">
<path d="M4.42674 8.06398C4.42144 8.0344 4.40862 8.00669 4.38952 7.9835L3.42907 5.90653C3.41498 5.87607 3.39248 5.85027 3.36421 5.83219C3.33594 5.81411 3.30309 5.80451 3.26954 5.80451C3.23599 5.80451 3.20314 5.81411 3.17488 5.83219C3.14661 5.85027 3.1241 5.87607 3.11001 5.90653L2.14956 7.9835C2.13046 8.00669 2.11764 8.0344 2.11235 8.06398L1.75581 8.83498C1.73623 8.87732 1.73427 8.9257 1.75034 8.96948C1.76642 9.01327 1.79922 9.04887 1.84153 9.06846C1.88384 9.08804 1.93219 9.09001 1.97595 9.07393C2.01971 9.05784 2.05529 9.02503 2.07487 8.98269L2.40384 8.27129H4.13524L4.46421 8.98269C4.48379 9.02503 4.51937 9.05784 4.56313 9.07393C4.60689 9.09001 4.65525 9.08804 4.69756 9.06846C4.73987 9.04887 4.77267 9.01327 4.78874 8.96948C4.80482 8.9257 4.80285 8.87732 4.78327 8.83498L4.42674 8.06398ZM2.5665 7.91954L3.26954 6.39923L3.97258 7.91954H2.5665ZM7.48 2.1054H7.83973C7.88635 2.1054 7.93106 2.08687 7.96403 2.05389C7.997 2.0209 8.01551 1.97617 8.01551 1.92952C8.01551 1.88288 7.997 1.83814 7.96403 1.80516C7.93106 1.77218 7.88635 1.75365 7.83973 1.75365H6.76873C6.72211 1.75365 6.6774 1.77218 6.64443 1.80516C6.61147 1.83814 6.59295 1.88288 6.59295 1.92952C6.59295 1.97617 6.61147 2.0209 6.64443 2.05389C6.6774 2.08687 6.72211 2.1054 6.76873 2.1054H7.12844V2.89832H6.23652C6.30741 2.78512 6.34669 2.65499 6.35029 2.52146C6.35389 2.38792 6.32166 2.25586 6.25697 2.13901C6.19227 2.02216 6.09747 1.92478 5.98242 1.85701C5.86737 1.78924 5.73627 1.75355 5.60276 1.75365H4.84576C4.79914 1.75365 4.75443 1.77218 4.72146 1.80516C4.6885 1.83814 4.66998 1.88288 4.66998 1.92952C4.66998 1.97617 4.6885 2.0209 4.72146 2.05389C4.75443 2.08687 4.79914 2.1054 4.84576 2.1054H5.60276C5.70785 2.1054 5.80864 2.14717 5.88295 2.22152C5.95725 2.29587 5.999 2.39671 5.999 2.50186C5.999 2.60701 5.95725 2.70785 5.88295 2.7822C5.80864 2.85655 5.70785 2.89832 5.60276 2.89832H4.84576C4.79914 2.89832 4.75443 2.91685 4.72146 2.94983C4.6885 2.98281 4.66998 3.02755 4.66998 3.07419C4.66998 3.12084 4.6885 3.16557 4.72146 3.19856C4.75443 3.23154 4.79914 3.25007 4.84576 3.25007H5.59004C5.81072 3.25007 5.99472 3.42369 6.00024 3.63712C6.00165 3.69021 5.99241 3.74304 5.97308 3.79251C5.95375 3.84197 5.92471 3.88705 5.88768 3.92511C5.85065 3.96316 5.80638 3.9934 5.75747 4.01405C5.70857 4.0347 5.65603 4.04534 5.60295 4.04534C5.59748 4.04534 5.59201 4.0456 5.58656 4.04611C5.39401 4.06419 5.19986 4.03869 5.0185 3.97148C4.83714 3.90427 4.67322 3.79709 4.5389 3.65788C4.52288 3.6412 4.50372 3.62785 4.48254 3.61859C4.46135 3.60933 4.43855 3.60435 4.41543 3.60392C4.39232 3.60349 4.36935 3.60763 4.34783 3.61609C4.32632 3.62456 4.30669 3.63719 4.29006 3.65326C4.27343 3.66933 4.26013 3.68853 4.25093 3.70974C4.24172 3.73096 4.23679 3.75379 4.23642 3.77692C4.23605 3.80005 4.24023 3.82302 4.24875 3.84453C4.25726 3.86603 4.26993 3.88565 4.28603 3.90225C4.43922 4.06104 4.62286 4.18726 4.82596 4.27337C5.02905 4.35948 5.24742 4.40369 5.468 4.40337C5.5159 4.40337 5.56381 4.40128 5.61144 4.39705C5.71073 4.39593 5.80881 4.37506 5.89996 4.33566C5.99112 4.29626 6.07354 4.23912 6.14242 4.16756C6.2113 4.096 6.26527 4.01145 6.30119 3.91882C6.33712 3.8262 6.35427 3.72735 6.35166 3.62804C6.34806 3.49364 6.30746 3.36285 6.23432 3.25007H7.12844V4.21886C7.12844 4.26551 7.14696 4.31024 7.17993 4.34323C7.21289 4.37621 7.2576 4.39474 7.30422 4.39474C7.35084 4.39474 7.39555 4.37621 7.42852 4.34323C7.46148 4.31024 7.48 4.26551 7.48 4.21886L7.48 2.1054ZM9.43243 6.06965C8.92133 6.06926 8.4218 6.22183 7.99805 6.50775V6.21751C8.46563 5.90949 8.84916 5.48977 9.11399 4.99628C9.37882 4.50278 9.51661 3.95105 9.51492 3.39092C9.51492 1.52116 7.99471 0 6.1261 0C4.25749 0 2.73728 1.52116 2.73728 3.39092C2.73673 3.75177 2.79401 4.11037 2.90694 4.45307C1.27414 4.63417 1.46179e-05 6.02299 1.46179e-05 7.70417C-0.00160296 8.24399 0.13105 8.77572 0.386019 9.25146C0.640988 9.7272 1.01026 10.132 1.46055 10.4293V11.824C1.46055 11.8551 1.46878 11.8856 1.48441 11.9125C1.50003 11.9393 1.52249 11.9616 1.5495 11.9769C1.57651 11.9923 1.6071 12.0002 1.63817 11.9999C1.66923 11.9996 1.69965 11.991 1.72633 11.9751L3.40744 10.9725C3.87825 10.9526 4.33917 10.831 4.75866 10.6163C5.17815 10.4015 5.54629 10.0985 5.83787 9.72812C6.12945 9.35773 6.33758 8.92867 6.44801 8.47032C6.55844 8.01196 6.56855 7.53514 6.47767 7.07251L7.14504 7.4704C6.94983 7.85318 6.85367 8.27883 6.86538 8.70841C6.8771 9.13798 6.9963 9.55776 7.21209 9.92932C7.42787 10.3009 7.73335 10.6124 8.10056 10.8352C8.46777 11.0581 8.88499 11.1853 9.31403 11.2052L10.605 11.9752C10.6317 11.9911 10.6621 11.9997 10.6932 12C10.7242 12.0003 10.7548 11.9924 10.7818 11.9771C10.8088 11.9617 10.8313 11.9395 10.8469 11.9126C10.8626 11.8857 10.8708 11.8552 10.8708 11.8241V10.767C11.3261 10.459 11.6705 10.0128 11.8535 9.49426C12.0365 8.97571 12.0484 8.41208 11.8874 7.88627C11.7264 7.36047 11.401 6.90022 10.9591 6.57322C10.5172 6.24621 9.98206 6.06971 9.43243 6.06965H9.43243ZM5.35957 9.7415C4.83114 10.2867 4.11021 10.603 3.35141 10.6225C3.32138 10.6234 3.29206 10.6319 3.26625 10.6473L1.81212 11.5144V10.3334C1.81212 10.3035 1.80451 10.2741 1.79002 10.248C1.77552 10.2219 1.75461 10.1999 1.72926 10.1841C1.21617 9.8651 0.814655 9.39466 0.580121 8.83767C0.345588 8.28068 0.289593 7.66459 0.419861 7.07441C0.55013 6.48423 0.860242 5.94904 1.30741 5.54269C1.75458 5.13633 2.31676 4.87884 2.9164 4.80574C3.51604 4.73264 4.12357 4.84753 4.65518 5.13455C5.18679 5.42158 5.61627 5.86661 5.88436 6.40822C6.15246 6.94984 6.24596 7.56135 6.15196 8.15839C6.05796 8.75543 5.7811 9.30857 5.35957 9.7415L5.35957 9.7415ZM6.34064 6.58135C6.11004 5.95233 5.69227 5.40915 5.14364 5.025C4.595 4.64085 3.94186 4.43419 3.27223 4.43288C3.15034 4.09905 3.08826 3.74633 3.08884 3.39092C3.08884 1.71512 4.45135 0.351756 6.1261 0.351756C7.80085 0.351756 9.16335 1.71512 9.16335 3.39092C9.16484 3.90795 9.0338 4.41673 8.78274 4.86864C8.53168 5.32055 8.169 5.7005 7.72934 5.97219C7.704 5.98798 7.68309 6.00998 7.66859 6.0361C7.6541 6.06222 7.64649 6.0916 7.64649 6.12148V7.35987L7.47241 7.25608L7.47208 7.25586L7.47167 7.25564L6.34064 6.58135ZM10.6021 10.5222C10.5768 10.538 10.5558 10.56 10.5413 10.5861C10.5268 10.6123 10.5192 10.6417 10.5192 10.6715V11.5145L9.45541 10.88C9.42959 10.8646 9.40026 10.8561 9.37022 10.8552C8.99825 10.8447 8.63491 10.7407 8.3137 10.5528C7.99248 10.3648 7.72373 10.099 7.53222 9.77976C7.34072 9.46053 7.23262 9.0982 7.2179 8.72618C7.20318 8.35415 7.28232 7.98441 7.448 7.65103L7.73227 7.82052C7.75896 7.83643 7.78938 7.84498 7.82044 7.8453C7.8515 7.84562 7.88209 7.8377 7.9091 7.82235C7.93611 7.807 7.95857 7.78476 7.97419 7.7579C7.98982 7.73103 7.99805 7.70051 7.99805 7.66943V6.94895C8.23039 6.75155 8.50094 6.60422 8.79278 6.51619C9.08461 6.42815 9.39147 6.40131 9.69414 6.43733C9.99682 6.47334 10.2888 6.57145 10.5519 6.72552C10.8149 6.87958 11.0434 7.08629 11.223 7.33272C11.4026 7.57914 11.5294 7.85999 11.5956 8.15769C11.6618 8.4554 11.6658 8.76356 11.6076 9.06291C11.5493 9.36227 11.4299 9.64637 11.2569 9.89747C11.0839 10.1486 10.861 10.3613 10.6021 10.5222ZM10.5195 7.67762H10.1542C10.1406 7.67601 10.1268 7.67601 10.1132 7.67762H9.60812V7.3821C9.60812 7.33546 9.5896 7.29072 9.55663 7.25774C9.52367 7.22476 9.47896 7.20623 9.43234 7.20623C9.38572 7.20623 9.34101 7.22476 9.30804 7.25774C9.27508 7.29072 9.25656 7.33546 9.25656 7.3821V7.67762H8.46206C8.41544 7.67762 8.37073 7.69615 8.33777 7.72913C8.3048 7.76211 8.28628 7.80685 8.28628 7.85349C8.28628 7.90014 8.3048 7.94487 8.33777 7.97786C8.37073 8.01084 8.41544 8.02937 8.46206 8.02937H9.86507C9.71464 8.33714 9.50743 8.61369 9.25437 8.84448C9.13873 8.7262 9.03693 8.59513 8.95093 8.45381C8.92668 8.41399 8.88762 8.38543 8.84233 8.37441C8.79704 8.36339 8.74924 8.37082 8.70942 8.39506C8.66961 8.4193 8.64104 8.45837 8.63001 8.50368C8.61898 8.54899 8.62638 8.59683 8.65059 8.63667C8.74394 8.79031 8.85336 8.93356 8.97702 9.06401C8.8134 9.1759 8.6378 9.26918 8.4535 9.34211C8.43204 9.35062 8.41247 9.36327 8.39589 9.37935C8.37932 9.39542 8.36607 9.41461 8.35691 9.43581C8.34775 9.45701 8.34285 9.47981 8.34249 9.5029C8.34214 9.52599 8.34633 9.54893 8.35483 9.57041C8.36333 9.59188 8.37598 9.61146 8.39205 9.62805C8.40812 9.64463 8.42729 9.65788 8.44848 9.66705C8.46967 9.67622 8.49245 9.68112 8.51554 9.68148C8.53862 9.68183 8.56154 9.67764 8.583 9.66913C8.81718 9.57636 9.03879 9.45454 9.24263 9.30653C9.50317 9.51295 9.80196 9.66576 10.1218 9.75616C10.1666 9.76892 10.2147 9.76333 10.2554 9.74062C10.2961 9.71791 10.3262 9.67995 10.3389 9.63508C10.3517 9.59021 10.3461 9.54211 10.3234 9.50136C10.3007 9.46062 10.2627 9.43056 10.2179 9.41781C9.96722 9.34696 9.73131 9.23157 9.52147 9.07713C9.83506 8.7824 10.0839 8.42558 10.2521 8.02937H10.5195C10.5662 8.02937 10.6109 8.01084 10.6438 7.97786C10.6768 7.94487 10.6953 7.90014 10.6953 7.85349C10.6953 7.80685 10.6768 7.76211 10.6438 7.72913C10.6109 7.69615 10.5662 7.67761 10.5195 7.67761V7.67762Z" fill="white"/>
</svg>
