<svg width="24" height="24" viewBox="0 0 24 24" fill="none" xmlns="http://www.w3.org/2000/svg">
<path d="M23.6486 6.35169V15.2922C23.6505 16.5751 23.355 17.8409 22.7851 18.9903C22.2153 20.1398 21.3867 21.1414 20.3645 21.9165C19.4583 22.6027 18.3528 22.974 17.2161 22.974C16.0795 22.974 14.9739 22.6027 14.0678 21.9165C13.0468 21.1402 12.2192 20.1383 11.6496 18.9892C11.08 17.84 10.7838 16.5747 10.7842 15.2922V5.51685C11.7518 6.15463 12.8081 6.64617 13.9192 6.9756C14.9624 7.28645 16.0444 7.44821 17.1329 7.45606C19.1708 7.46583 21.1761 6.94431 22.9511 5.94294C23.0223 5.90291 23.1029 5.88224 23.1846 5.88299C23.2664 5.88374 23.3465 5.90589 23.4171 5.94723C23.4876 5.98857 23.5461 6.04765 23.5867 6.11861C23.6273 6.18957 23.6486 6.26993 23.6486 6.35169Z" fill="#919191"/>
<path d="M12.5129 6.9756C13.5562 7.28645 14.6381 7.44821 15.7267 7.45606C15.9945 7.45794 16.2558 7.45011 16.5109 7.4346C15.6323 7.38065 14.7628 7.22666 13.9192 6.9756C12.8081 6.64617 11.7518 6.15463 10.7842 5.51685V6.311C11.3422 6.57722 11.9202 6.79943 12.5129 6.9756ZM22.9511 5.94294C22.7182 6.07389 22.4809 6.1969 22.2396 6.31175C22.2407 6.32497 22.2423 6.338 22.2423 6.35169V15.2922C22.2443 16.5751 21.9487 17.8409 21.3789 18.9903C20.8091 20.1398 19.9805 21.1414 18.9582 21.9165C18.2433 22.4573 17.4012 22.8047 16.513 22.9254C17.8797 23.1118 19.2646 22.749 20.3645 21.9165C21.3867 21.1414 22.2153 20.1398 22.7851 18.9903C23.355 17.8409 23.6505 16.5751 23.6486 15.2922V6.35169C23.6486 6.26993 23.6273 6.18957 23.5867 6.11861C23.5461 6.04765 23.4876 5.98857 23.4171 5.94723C23.3465 5.90589 23.2664 5.88374 23.1846 5.88299C23.1029 5.88224 23.0223 5.90291 22.9511 5.94294Z" fill="#919191"/>
<path d="M20.3203 18.6607C20.1724 17.0198 18.789 15.7597 17.1782 15.7795C15.5953 15.799 14.2571 17.0485 14.1121 18.6607C15.0647 18.1426 16.1318 17.8712 17.2162 17.8712C18.3005 17.8712 19.3677 18.1426 20.3203 18.6607Z" fill="var(--color-white)"/>
<path d="M18.8038 18.0691C19.332 18.2024 19.8414 18.4012 20.3203 18.6607C20.1725 17.0198 18.7891 15.7597 17.1783 15.7795C16.9544 15.7825 16.7315 15.8103 16.5137 15.8624C17.056 15.9958 17.5535 16.2701 17.9556 16.6577C18.3578 17.0452 18.6504 17.5321 18.8038 18.0691Z" fill="var(--color-white)"/>
<path d="M20.1002 10.6562C19.7613 10.6571 19.4294 10.7525 19.1418 10.9317C18.8542 11.1109 18.6223 11.3668 18.4722 11.6706C18.6216 11.975 18.8534 12.2313 19.1411 12.4106C19.4289 12.5899 19.7612 12.685 20.1002 12.685C20.4393 12.685 20.7716 12.5899 21.0593 12.4106C21.3471 12.2313 21.5789 11.975 21.7283 11.6706C21.5782 11.3668 21.3463 11.1109 21.0587 10.9317C20.771 10.7525 20.4391 10.6571 20.1002 10.6562Z" fill="var(--color-white)"/>
<path d="M20.1004 10.6562C19.9823 10.6565 19.8646 10.6683 19.7488 10.6915C20.0222 10.7466 20.2793 10.8634 20.5006 11.0331C20.7218 11.2028 20.9013 11.4209 21.0253 11.6706C20.9013 11.9204 20.7218 12.1384 20.5005 12.3081C20.2793 12.4778 20.0221 12.5947 19.7488 12.6497C20.1406 12.7283 20.5473 12.6748 20.9055 12.4976C21.2637 12.3205 21.5531 12.0297 21.7285 11.6706C21.5784 11.3668 21.3465 11.1109 21.0588 10.9317C20.7712 10.7525 20.4393 10.6571 20.1004 10.6562Z" fill="var(--color-white)"/>
<path d="M14.3322 10.6562C13.9933 10.6571 13.6614 10.7524 13.3737 10.9317C13.0861 11.1109 12.8542 11.3668 12.7041 11.6706C12.8535 11.975 13.0853 12.2314 13.3731 12.4107C13.6608 12.59 13.9931 12.685 14.3322 12.685C14.6713 12.685 15.0035 12.59 15.2913 12.4107C15.5791 12.2314 15.8108 11.975 15.9603 11.6706C15.8102 11.3668 15.5783 11.1109 15.2907 10.9317C15.003 10.7525 14.6711 10.6571 14.3322 10.6562Z" fill="var(--color-white)"/>
<path d="M13.9144 10.7051C13.8949 11.3282 13.8053 11.9471 13.6472 12.5501C13.2371 12.3803 12.9021 12.068 12.7041 11.6707C12.8229 11.431 12.9929 11.2203 13.202 11.0534C13.4111 10.8866 13.6543 10.7677 13.9144 10.7051Z" fill="var(--color-white)"/>
<path d="M14.332 10.6562C14.214 10.6565 14.0962 10.6683 13.9805 10.6915C14.2538 10.7466 14.511 10.8634 14.7322 11.0331C14.9534 11.2028 15.1329 11.4209 15.257 11.6706C15.1329 11.9204 14.9534 12.1384 14.7322 12.3081C14.5109 12.4778 14.2538 12.5946 13.9805 12.6497C14.3723 12.7283 14.779 12.6748 15.1372 12.4976C15.4954 12.3205 15.7847 12.0297 15.9601 11.6706C15.81 11.3668 15.5781 11.1109 15.2905 10.9317C15.0028 10.7525 14.6709 10.6571 14.332 10.6562Z" fill="var(--color-white)"/>
<path d="M13.9192 6.9756V10.4359C13.9192 10.5259 13.9178 10.6154 13.9145 10.705C13.8776 11.879 13.5922 13.032 13.0773 14.0877C12.5624 15.1435 11.8296 16.0782 10.9271 16.8301C10.8318 16.323 10.784 15.8081 10.7842 15.2922V5.51685C11.7518 6.15463 12.8081 6.64617 13.9192 6.9756Z" fill="#919191"/>
<path d="M13.9144 10.7051C13.8949 11.3282 13.8053 11.9471 13.6472 12.5501C13.2371 12.3803 12.9021 12.068 12.7041 11.6707C12.8229 11.431 12.9929 11.2203 13.202 11.0534C13.4111 10.8866 13.6543 10.7677 13.9144 10.7051Z" fill="var(--color-white)"/>
<path d="M9.93217 17.0606C9.02597 17.7467 7.92045 18.118 6.78381 18.118C5.64716 18.118 4.54164 17.7467 3.63545 17.0606C2.61327 16.2854 1.78475 15.2838 1.21496 14.1344C0.645171 12.985 0.349637 11.7191 0.351572 10.4362V1.49586C0.351568 1.41397 0.373018 1.33352 0.413785 1.2625C0.454553 1.19149 0.513215 1.1324 0.583929 1.09111C0.654643 1.04982 0.73494 1.02778 0.816822 1.02719C0.898703 1.02659 0.979312 1.04746 1.05062 1.08772C2.77579 2.06134 4.71965 2.58168 6.70051 2.60009C8.73841 2.60989 10.7437 2.08827 12.5185 1.08668C12.5898 1.0467 12.6704 1.02608 12.7521 1.02688C12.8339 1.02767 12.914 1.04986 12.9846 1.09122C13.0551 1.13258 13.1136 1.19169 13.1542 1.26266C13.1948 1.33363 13.2161 1.414 13.216 1.49576V10.4362C13.218 11.7191 12.9224 12.9849 12.3527 14.1343C11.7829 15.2837 10.9543 16.2854 9.93217 17.0606V17.0606Z" fill="var(--color-white)"/>
<path d="M12.5184 1.08668C12.2855 1.21766 12.0482 1.3407 11.807 1.45559C11.8081 1.4689 11.8097 1.48203 11.8097 1.49576V10.4362C11.8116 11.7191 11.5161 12.9849 10.9463 14.1343C10.3765 15.2837 9.54798 16.2854 8.5258 17.0606C7.81089 17.6013 6.96876 17.9487 6.08057 18.0695C7.4473 18.2558 8.83219 17.893 9.93205 17.0606C10.9542 16.2854 11.7828 15.2837 12.3525 14.1343C12.9223 12.9849 13.2179 11.7191 13.2159 10.4362V1.49572C13.216 1.41395 13.1947 1.33359 13.154 1.26263C13.1134 1.19167 13.055 1.13257 12.9844 1.09121C12.9139 1.04985 12.8338 1.02767 12.752 1.02688C12.6702 1.02608 12.5897 1.0467 12.5184 1.08668Z" fill="var(--color-white)"/>
<path d="M9.88791 10.9231C9.74006 12.564 8.35664 13.824 6.74588 13.8043C5.16295 13.7848 3.82477 12.5352 3.67969 10.9231C4.6323 11.4412 5.69943 11.7126 6.7838 11.7126C7.86817 11.7126 8.9353 11.4412 9.88791 10.9231Z" fill="var(--color-bg)"/>
<path d="M8.37147 11.5146C8.21806 12.0516 7.92545 12.5386 7.52327 12.9261C7.12109 13.3136 6.62364 13.588 6.0813 13.7213C6.29908 13.7735 6.52198 13.8013 6.74589 13.8043C8.3567 13.824 9.74013 12.564 9.88797 10.9231C9.40904 11.1826 8.89959 11.3813 8.37142 11.5147L8.37147 11.5146Z" fill="var(--color-bg)"/>
<path d="M9.6679 5.80005C9.32901 5.80086 8.99707 5.89624 8.70944 6.07545C8.4218 6.25466 8.18989 6.51058 8.03979 6.81442C8.18923 7.11878 8.42098 7.37516 8.70876 7.55446C8.99654 7.73376 9.32882 7.8288 9.66788 7.8288C10.0069 7.8288 10.3392 7.73376 10.627 7.55446C10.9148 7.37516 11.1465 7.11878 11.296 6.81442C11.1459 6.51059 10.914 6.25467 10.6263 6.07546C10.3387 5.89625 10.0068 5.80087 9.6679 5.80005Z" fill="var(--color-bg)"/>
<path d="M9.66797 5.80005C9.54991 5.80029 9.43216 5.81209 9.31641 5.8353C9.58975 5.89036 9.84689 6.00721 10.0681 6.17691C10.2894 6.34662 10.4689 6.56468 10.5929 6.81442C10.4689 7.06417 10.2894 7.28223 10.0681 7.45194C9.84689 7.62164 9.58976 7.73849 9.31641 7.79355C9.70819 7.87209 10.115 7.8186 10.4731 7.64145C10.8313 7.4643 11.1207 7.17347 11.296 6.81442C11.1459 6.51059 10.914 6.25468 10.6264 6.07547C10.3388 5.89626 10.0069 5.80088 9.66797 5.80005Z" fill="var(--color-bg)"/>
<path d="M3.89979 5.80005C3.56091 5.80087 3.22898 5.89625 2.94135 6.07546C2.65373 6.25467 2.42182 6.51059 2.27173 6.81442C2.42117 7.11877 2.65292 7.37513 2.9407 7.55443C3.22847 7.73372 3.56074 7.82876 3.89979 7.82876C4.23885 7.82876 4.57111 7.73372 4.85889 7.55443C5.14666 7.37513 5.37842 7.11877 5.52785 6.81442C5.37776 6.51059 5.14586 6.25467 4.85823 6.07546C4.57061 5.89625 4.23868 5.80087 3.89979 5.80005Z" fill="var(--color-bg)"/>
<path d="M3.89966 5.80005C3.7816 5.80029 3.66385 5.81209 3.5481 5.8353C3.82145 5.89035 4.07858 6.0072 4.29983 6.17691C4.52108 6.34662 4.70058 6.56468 4.8246 6.81442C4.70058 7.06417 4.52108 7.28223 4.29983 7.45194C4.07858 7.62164 3.82145 7.73849 3.5481 7.79355C3.93988 7.87209 4.34665 7.8186 4.70482 7.64145C5.06299 7.4643 5.35237 7.17347 5.52772 6.81442C5.37763 6.51059 5.14572 6.25467 4.8581 6.07546C4.57047 5.89625 4.23854 5.80087 3.89966 5.80005Z" fill="var(--color-bg)"/>
</svg>
