<svg width="24" height="24" viewBox="0 0 24 24" fill="none" xmlns="http://www.w3.org/2000/svg">
<path d="M12 15.8025C14.4075 15.8025 16.3875 13.98 16.6575 11.6475H13.5C13.0875 11.6475 12.75 11.3175 12.75 10.8975C12.75 10.485 13.0875 10.1475 13.5 10.1475H16.6875V9.3975H13.5C13.0875 9.3975 12.75 9.0675 12.75 8.6475C12.75 8.235 13.0875 7.8975 13.5 7.8975H16.6875V7.1475H13.5C13.0875 7.1475 12.75 6.8175 12.75 6.3975C12.75 5.985 13.0875 5.6475 13.5 5.6475H16.6575C16.3875 3.315 14.4075 1.5 12 1.5C9.4125 1.5 7.3125 3.6 7.3125 6.1875V11.1075C7.3125 13.695 9.4125 15.8025 12 15.8025Z" fill="var(--color-white)"/>
<path d="M18.8926 7.89746C18.4801 7.89746 18.1426 8.23496 18.1426 8.64746V11.1075C18.1591 14.4457 15.3984 17.2635 12.0001 17.25C8.69336 17.319 5.78711 14.412 5.85761 11.1075V8.64746C5.85761 8.23496 5.52011 7.89746 5.10761 7.89746C4.69511 7.89746 4.35761 8.23496 4.35761 8.64746V11.1075C4.27961 14.9445 7.44386 18.4095 11.2501 18.7125V21H9.53861C9.3397 21 9.14893 21.079 9.00828 21.2196C8.86763 21.3603 8.78861 21.551 8.78861 21.75C8.78861 21.9489 8.86763 22.1396 9.00828 22.2803C9.14893 22.4209 9.3397 22.5 9.53861 22.5H14.4616C14.6605 22.5 14.8513 22.4209 14.9919 22.2803C15.1326 22.1396 15.2116 21.9489 15.2116 21.75C15.2116 21.551 15.1326 21.3603 14.9919 21.2196C14.8513 21.079 14.6605 21 14.4616 21H12.7501V18.7125C16.6291 18.3495 19.6539 15.0195 19.6426 11.1075V8.64746C19.6426 8.23496 19.3051 7.89746 18.8926 7.89746Z" fill="var(--color-white)"/>
</svg>
