<svg width="24" height="24" viewBox="0 0 24 24" fill="none" xmlns="http://www.w3.org/2000/svg">
<path d="M13.4995 3.75001C13.4995 3.44847 13.3189 3.17623 13.041 3.05901C12.7632 2.94178 12.4422 3.00235 12.2262 3.21277L7.8361 7.48909H5.24951C4.00688 7.48909 2.99951 8.49646 2.99951 9.73909V14.2226C2.99951 15.4651 4.00688 16.4725 5.24951 16.4725H7.83424L9.7703 18.3745C9.97003 17.9445 10.2443 17.5509 10.5825 17.2128L10.6546 17.1406L8.6666 15.1875C8.52635 15.0498 8.33761 14.9726 8.141 14.9726H5.24951C4.8353 14.9726 4.49951 14.6368 4.49951 14.2226V9.73909C4.49951 9.32488 4.8353 8.98909 5.24951 8.98909H8.141C8.33651 8.98909 8.52428 8.91276 8.66432 8.77633L11.9995 5.5276V15.7958L13.4995 14.2957V3.75001ZM19.3802 6.5794C20.0953 7.6686 20.8127 9.22108 20.9719 11.1934C20.4896 10.8453 19.942 10.6282 19.3781 10.5423C19.1483 9.23433 18.6382 8.18226 18.1262 7.40263C17.7806 6.87616 17.4359 6.47688 17.1808 6.21199C17.0536 6.07977 16.9492 5.98171 16.8793 5.91873C16.8443 5.88726 16.8179 5.86462 16.8017 5.8509L16.7851 5.83707C16.4615 5.57898 16.4074 5.10676 16.6652 4.78287C16.9232 4.45882 17.395 4.40529 17.7191 4.66329L17.7217 4.66536L17.7254 4.66833L17.7359 4.67697L17.7697 4.70497C17.7974 4.72842 17.8355 4.76139 17.8826 4.80382C17.977 4.88862 18.1072 5.01145 18.2614 5.17155C18.5693 5.49133 18.9752 5.96254 19.3802 6.5794ZM17.1455 8.77714C17.4295 9.24418 17.7074 9.85914 17.8675 10.6248C17.3659 10.7587 16.8871 11.0002 16.4677 11.3494C16.3723 10.5598 16.1135 9.96718 15.8638 9.55635C15.7055 9.29616 15.5495 9.10681 15.4381 8.98657C15.3824 8.92656 15.3383 8.88417 15.311 8.85919C15.2974 8.84671 15.2881 8.83863 15.2837 8.83492L15.2852 8.83606C14.9617 8.57809 14.9087 8.10708 15.1664 7.78311C15.4243 7.45896 15.896 7.40523 16.2203 7.66309L16.2215 7.6641L16.2229 7.66522L16.2262 7.66782L16.2343 7.67442L16.2566 7.69323C16.2743 7.70827 16.2973 7.72836 16.3247 7.75356C16.3796 7.80391 16.4528 7.87485 16.5382 7.96678C16.7084 8.15043 16.928 8.41944 17.1455 8.77714ZM17.2775 12.6391C18.1295 11.787 19.511 11.787 20.3632 12.6391C21.2152 13.4911 21.2152 14.8726 20.3632 15.7246L14.7287 21.3591C14.4002 21.6876 13.9886 21.9205 13.5379 22.0333L11.7904 22.4701C11.0304 22.6602 10.342 21.9717 10.532 21.2118L10.9689 19.4643C11.0816 19.0135 11.3146 18.6019 11.6431 18.2734L17.2775 12.6391ZM18.3382 13.6997L12.7038 19.3341C12.5675 19.4703 12.4708 19.6412 12.4241 19.8281L12.1741 20.8281L13.1741 20.5781C13.3611 20.5312 13.5318 20.4347 13.6681 20.2985L19.3025 14.664C19.5688 14.3977 19.5688 13.966 19.3025 13.6997C19.0361 13.4334 18.6044 13.4334 18.3382 13.6997Z" fill="var(--color-white)"/>
</svg>
