<svg width="13" height="17" viewBox="0 0 13 17" fill="none" xmlns="http://www.w3.org/2000/svg">
<path d="M13 8.5C13 6.75444 12.149 5.22981 10.8819 4.3974C10.7549 4.31395 10.5926 4.4091 10.5926 4.56109V12.4431C10.5926 12.5954 10.7553 12.6905 10.8824 12.6066C12.1492 11.7698 13 10.2453 13 8.5ZM0.2 5.3125C0.0895431 5.3125 0 5.40204 0 5.5125V11.4875C0 11.598 0.089543 11.6875 0.2 11.6875H3.7632C3.81965 11.6875 3.87348 11.7114 3.91139 11.7532L8.31847 16.6158C8.44134 16.7514 8.66667 16.6645 8.66667 16.4815V0.518494C8.66667 0.335538 8.44134 0.24862 8.31847 0.384183L3.91139 5.24681C3.87348 5.28864 3.81965 5.3125 3.7632 5.3125H0.2Z" fill="#B8B8B8"/>
</svg>
