<svg width="15" height="17" viewBox="0 0 15 17" fill="var(--color-white)" xmlns="http://www.w3.org/2000/svg">
<path d="M12.75 0H2.25C1.0095 0 0 0.994869 0 2.21739V16.2609C0 16.5432 0.1635 16.8004 0.42075 16.9246C0.67875 17.048 0.98475 17.0177 1.2105 16.844L7.5 12.0234L13.7895 16.844C13.9237 16.9475 14.0865 17 14.25 17C14.3617 17 14.475 16.9749 14.5792 16.9246C14.8365 16.8004 15 16.5432 15 16.2609V2.21739C15 0.994869 13.9905 0 12.75 0ZM13.5 14.7501L7.9605 10.5038C7.8255 10.3996 7.66275 10.3478 7.5 10.3478C7.33725 10.3478 7.1745 10.3996 7.0395 10.503L1.5 14.7501V2.21739C1.5 1.81013 1.83675 1.47826 2.25 1.47826H12.75C13.1632 1.47826 13.5 1.81013 13.5 2.21739V14.7501Z"/>
</svg> 
