<svg width="24" height="24" viewBox="0 0 24 24" fill="none" xmlns="http://www.w3.org/2000/svg">
<g clip-path="url(#clip0_2546_9015)">
<path d="M20.1261 8.57274L19.7396 20.2727C19.7066 21.2747 19.2845 22.2244 18.5628 22.9204C17.8411 23.6163 16.8766 24.0035 15.8741 24H8.52961C7.52769 24.0036 6.56376 23.6168 5.84216 22.9217C5.12055 22.2267 4.69801 21.2779 4.6641 20.2765L4.27755 8.57274C4.26909 8.31644 4.3628 8.06728 4.53805 7.88007C4.7133 7.69285 4.95574 7.58293 5.21204 7.57447C5.46834 7.56601 5.7175 7.65972 5.90471 7.83497C6.09192 8.01022 6.20185 8.25266 6.2103 8.50896L6.59685 20.2118C6.6161 20.7114 6.8282 21.1841 7.18859 21.5306C7.54899 21.8771 8.02964 22.0705 8.52961 22.0701H15.8741C16.3747 22.0705 16.8559 21.8765 17.2164 21.5292C17.5769 21.1819 17.7886 20.7082 17.8068 20.2079L18.1934 8.50896C18.2018 8.25266 18.3118 8.01022 18.499 7.83497C18.6862 7.65972 18.9353 7.56601 19.1916 7.57447C19.4479 7.58293 19.6904 7.69285 19.8656 7.88007C20.0409 8.06728 20.1346 8.31644 20.1261 8.57274ZM21.4046 4.67921C21.4046 4.9355 21.3028 5.18131 21.1216 5.36254C20.9404 5.54377 20.6946 5.64558 20.4383 5.64558H3.96638C3.71008 5.64558 3.46428 5.54377 3.28304 5.36254C3.10181 5.18131 3 4.9355 3 4.67921C3 4.42291 3.10181 4.17711 3.28304 3.99587C3.46428 3.81464 3.71008 3.71283 3.96638 3.71283H6.96214C7.26834 3.71365 7.56389 3.60053 7.79128 3.39547C8.01867 3.19041 8.16163 2.90808 8.19234 2.60343C8.26366 1.88878 8.59847 1.22627 9.13156 0.744997C9.66465 0.263719 10.3578 -0.00185864 11.076 9.79218e-06H13.3277C14.0459 -0.00185864 14.739 0.263719 15.2721 0.744997C15.8052 1.22627 16.14 1.88878 16.2113 2.60343C16.2421 2.90808 16.385 3.19041 16.6124 3.39547C16.8398 3.60053 17.1353 3.71365 17.4415 3.71283H20.4373C20.6936 3.71283 20.9394 3.81464 21.1206 3.99587C21.3019 4.17711 21.4037 4.42291 21.4037 4.67921H21.4046ZM9.86997 3.71283H14.5356C14.4087 3.42267 14.3256 3.11521 14.2892 2.80057C14.2653 2.56237 14.1538 2.34153 13.9763 2.18084C13.7988 2.02016 13.568 1.93107 13.3286 1.93083H11.077C10.8376 1.93107 10.6068 2.02016 10.4293 2.18084C10.2518 2.34153 10.1403 2.56237 10.1164 2.80057C10.0797 3.11526 9.99633 3.42272 9.86901 3.71283H9.86997ZM10.8431 18.3544V10.1257C10.8431 9.86941 10.7413 9.6236 10.5601 9.44237C10.3788 9.26114 10.133 9.15933 9.87674 9.15933C9.62044 9.15933 9.37464 9.26114 9.19341 9.44237C9.01217 9.6236 8.91036 9.86941 8.91036 10.1257V18.3583C8.91036 18.6146 9.01217 18.8604 9.19341 19.0416C9.37464 19.2228 9.62044 19.3246 9.87674 19.3246C10.133 19.3246 10.3788 19.2228 10.5601 19.0416C10.7413 18.8604 10.8431 18.6146 10.8431 18.3583V18.3544ZM15.4953 18.3544V10.1257C15.4953 9.86941 15.3934 9.6236 15.2122 9.44237C15.031 9.26114 14.7852 9.15933 14.5289 9.15933C14.2726 9.15933 14.0268 9.26114 13.8455 9.44237C13.6643 9.6236 13.5625 9.86941 13.5625 10.1257V18.3583C13.5625 18.6146 13.6643 18.8604 13.8455 19.0416C14.0268 19.2228 14.2726 19.3246 14.5289 19.3246C14.7852 19.3246 15.031 19.2228 15.2122 19.0416C15.3934 18.8604 15.4953 18.6146 15.4953 18.3583V18.3544Z" fill="#D9D9D9" stroke="var(--color-secondary)" stroke-width="0.5"/>
</g>
<defs>
<clipPath id="clip0_2546_9015">
<rect width="24" height="24" fill="white"/>
</clipPath>
</defs>
</svg>
