<svg width="1361" height="45" viewBox="0 0 1361 45" fill="none" xmlns="http://www.w3.org/2000/svg">
<g clip-path="url(#clip0_6418_92055)">
<line y1="-0.5" x2="4.86842" y2="-0.5" transform="matrix(0 -1 -1 0 37 25.4209)" stroke="#858585"/>
<line y1="-0.5" x2="9.73684" y2="-0.5" transform="matrix(0 -1 -1 0 33 27.3682)" stroke="#858585"/>
<line y1="-0.5" x2="19.4737" y2="-0.5" transform="matrix(0 -1 -1 0 29 32.2373)" stroke="#858585"/>
<line y1="-0.5" x2="29.2105" y2="-0.5" transform="matrix(0 -1 -1 0 25 37.1055)" stroke="#858585"/>
<line y1="-0.5" x2="4.86842" y2="-0.5" transform="matrix(0 -1 -1 0 1 25.4209)" stroke="#858585"/>
<line y1="-0.5" x2="24.3421" y2="-0.5" transform="matrix(0 -1 -1 0 21 35.1582)" stroke="#858585"/>
<line y1="-0.5" x2="29.2105" y2="-0.5" transform="matrix(0 -1 -1 0 17 37.1055)" stroke="#858585"/>
<line y1="-0.5" x2="14.6053" y2="-0.5" transform="matrix(0 -1 -1 0 13 30.2891)" stroke="#858585"/>
<line y1="-0.5" x2="19.4737" y2="-0.5" transform="matrix(0 -1 -1 0 9 32.2373)" stroke="#858585"/>
<line y1="-0.5" x2="9.73684" y2="-0.5" transform="matrix(0 -1 -1 0 5 27.3682)" stroke="#858585"/>
<line x1="40.5" y1="27.3682" x2="40.5" y2="17.6313" stroke="#858585"/>
<line x1="44.5" y1="32.2373" x2="44.5" y2="12.7636" stroke="#858585"/>
<line x1="48.5" y1="37.1055" x2="48.5" y2="7.89494" stroke="#858585"/>
<line y1="-0.5" x2="4.86842" y2="-0.5" transform="matrix(0 -1 -1 0 149 25.4209)" stroke="#858585"/>
<line y1="-0.5" x2="9.73684" y2="-0.5" transform="matrix(0 -1 -1 0 145 27.3682)" stroke="#858585"/>
<line y1="-0.5" x2="19.4737" y2="-0.5" transform="matrix(0 -1 -1 0 141 32.2373)" stroke="#858585"/>
<line y1="-0.5" x2="29.2105" y2="-0.5" transform="matrix(0 -1 -1 0 137 37.1055)" stroke="#858585"/>
<line y1="-0.5" x2="4.86842" y2="-0.5" transform="matrix(0 -1 -1 0 113 25.4209)" stroke="#858585"/>
<line y1="-0.5" x2="9.73684" y2="-0.5" transform="matrix(0 -1 -1 0 109 27.3682)" stroke="#858585"/>
<line y1="-0.5" x2="19.4737" y2="-0.5" transform="matrix(0 -1 -1 0 105 32.2373)" stroke="#858585"/>
<line y1="-0.5" x2="29.2105" y2="-0.5" transform="matrix(0 -1 -1 0 101 37.1055)" stroke="#858585"/>
<line x1="52.5" y1="35.1582" x2="52.5" y2="10.8161" stroke="#858585"/>
<line x1="56.5" y1="41" x2="56.5" y2="4" stroke="#858585"/>
<line x1="60.5" y1="35.1582" x2="60.5" y2="10.8161" stroke="#858585"/>
<line x1="64.5" y1="37.1055" x2="64.5" y2="7.89494" stroke="#858585"/>
<line x1="68.5" y1="30.2891" x2="68.5" y2="15.6838" stroke="#858585"/>
<line x1="72.5" y1="32.2373" x2="72.5" y2="12.7636" stroke="#858585"/>
<line y1="-0.5" x2="24.3421" y2="-0.5" transform="matrix(0 -1 -1 0 97 35.1582)" stroke="#858585"/>
<line y1="-0.5" x2="29.2105" y2="-0.5" transform="matrix(0 -1 -1 0 93 37.1055)" stroke="#858585"/>
<line y1="-0.5" x2="14.6053" y2="-0.5" transform="matrix(0 -1 -1 0 89 30.2891)" stroke="#858585"/>
<line y1="-0.5" x2="19.4737" y2="-0.5" transform="matrix(0 -1 -1 0 85 32.2373)" stroke="#858585"/>
<line x1="76.5" y1="27.3682" x2="76.5" y2="17.6313" stroke="#858585"/>
<line y1="-0.5" x2="24.3421" y2="-0.5" transform="matrix(0 -1 -1 0 133 35.1582)" stroke="#858585"/>
<line y1="-0.5" x2="29.2105" y2="-0.5" transform="matrix(0 -1 -1 0 129 37.1055)" stroke="#858585"/>
<line y1="-0.5" x2="14.6053" y2="-0.5" transform="matrix(0 -1 -1 0 125 30.2891)" stroke="#858585"/>
<line y1="-0.5" x2="19.4737" y2="-0.5" transform="matrix(0 -1 -1 0 121 32.2373)" stroke="#858585"/>
<line y1="-0.5" x2="9.73684" y2="-0.5" transform="matrix(0 -1 -1 0 117 27.3682)" stroke="#858585"/>
<line x1="80.5" y1="25.4209" x2="80.5" y2="20.5525" stroke="#858585"/>
<line x1="152.5" y1="27.3682" x2="152.5" y2="17.6313" stroke="#858585"/>
<line x1="156.5" y1="32.2373" x2="156.5" y2="12.7636" stroke="#858585"/>
<line x1="160.5" y1="37.1055" x2="160.5" y2="7.89494" stroke="#858585"/>
<line y1="-0.5" x2="4.86842" y2="-0.5" transform="matrix(0 -1 -1 0 261 25.4209)" stroke="#858585"/>
<line y1="-0.5" x2="9.73684" y2="-0.5" transform="matrix(0 -1 -1 0 257 27.3682)" stroke="#858585"/>
<line y1="-0.5" x2="19.4737" y2="-0.5" transform="matrix(0 -1 -1 0 253 32.2373)" stroke="#858585"/>
<line y1="-0.5" x2="29.2105" y2="-0.5" transform="matrix(0 -1 -1 0 249 37.1055)" stroke="#858585"/>
<line y1="-0.5" x2="4.86842" y2="-0.5" transform="matrix(0 -1 -1 0 225 25.4209)" stroke="#858585"/>
<line y1="-0.5" x2="9.73684" y2="-0.5" transform="matrix(0 -1 -1 0 221 27.3682)" stroke="#858585"/>
<line y1="-0.5" x2="19.4737" y2="-0.5" transform="matrix(0 -1 -1 0 217 32.2373)" stroke="#858585"/>
<line y1="-0.5" x2="29.2105" y2="-0.5" transform="matrix(0 -1 -1 0 213 37.1055)" stroke="#858585"/>
<line x1="164.5" y1="35.1582" x2="164.5" y2="10.8161" stroke="#858585"/>
<line x1="168.5" y1="41" x2="168.5" y2="4" stroke="#858585"/>
<line x1="172.5" y1="35.1582" x2="172.5" y2="10.8161" stroke="#858585"/>
<line x1="176.5" y1="37.1055" x2="176.5" y2="7.89494" stroke="#858585"/>
<line x1="180.5" y1="30.2891" x2="180.5" y2="15.6838" stroke="#858585"/>
<line x1="184.5" y1="32.2373" x2="184.5" y2="12.7636" stroke="#858585"/>
<line y1="-0.5" x2="24.3421" y2="-0.5" transform="matrix(0 -1 -1 0 209 35.1582)" stroke="#858585"/>
<line y1="-0.5" x2="29.2105" y2="-0.5" transform="matrix(0 -1 -1 0 205 37.1055)" stroke="#858585"/>
<line y1="-0.5" x2="14.6053" y2="-0.5" transform="matrix(0 -1 -1 0 201 30.2891)" stroke="#858585"/>
<line y1="-0.5" x2="19.4737" y2="-0.5" transform="matrix(0 -1 -1 0 197 32.2373)" stroke="#858585"/>
<line x1="188.5" y1="27.3682" x2="188.5" y2="17.6313" stroke="#858585"/>
<line y1="-0.5" x2="24.3421" y2="-0.5" transform="matrix(0 -1 -1 0 245 35.1582)" stroke="#858585"/>
<line y1="-0.5" x2="29.2105" y2="-0.5" transform="matrix(0 -1 -1 0 241 37.1055)" stroke="#858585"/>
<line y1="-0.5" x2="14.6053" y2="-0.5" transform="matrix(0 -1 -1 0 237 30.2891)" stroke="#858585"/>
<line y1="-0.5" x2="19.4737" y2="-0.5" transform="matrix(0 -1 -1 0 233 32.2373)" stroke="#858585"/>
<line y1="-0.5" x2="9.73684" y2="-0.5" transform="matrix(0 -1 -1 0 229 27.3682)" stroke="#858585"/>
<line x1="192.5" y1="25.4209" x2="192.5" y2="20.5525" stroke="#858585"/>
<line x1="264.5" y1="27.3682" x2="264.5" y2="17.6313" stroke="#858585"/>
<line x1="268.5" y1="32.2373" x2="268.5" y2="12.7636" stroke="#858585"/>
<line x1="272.5" y1="37.1055" x2="272.5" y2="7.89494" stroke="#858585"/>
<line y1="-0.5" x2="4.86842" y2="-0.5" transform="matrix(0 -1 -1 0 373 25.4209)" stroke="#858585"/>
<line y1="-0.5" x2="9.73684" y2="-0.5" transform="matrix(0 -1 -1 0 369 27.3682)" stroke="#858585"/>
<line y1="-0.5" x2="19.4737" y2="-0.5" transform="matrix(0 -1 -1 0 365 32.2373)" stroke="#858585"/>
<line y1="-0.5" x2="29.2105" y2="-0.5" transform="matrix(0 -1 -1 0 361 37.1055)" stroke="#858585"/>
<line y1="-0.5" x2="4.86842" y2="-0.5" transform="matrix(0 -1 -1 0 337 25.4209)" stroke="#858585"/>
<line y1="-0.5" x2="9.73684" y2="-0.5" transform="matrix(0 -1 -1 0 333 27.3682)" stroke="#858585"/>
<line y1="-0.5" x2="19.4737" y2="-0.5" transform="matrix(0 -1 -1 0 329 32.2373)" stroke="#858585"/>
<line y1="-0.5" x2="29.2105" y2="-0.5" transform="matrix(0 -1 -1 0 325 37.1055)" stroke="#858585"/>
<line x1="276.5" y1="35.1582" x2="276.5" y2="10.8161" stroke="#858585"/>
<line x1="280.5" y1="41" x2="280.5" y2="4" stroke="#858585"/>
<line x1="284.5" y1="35.1582" x2="284.5" y2="10.8161" stroke="#858585"/>
<line x1="288.5" y1="37.1055" x2="288.5" y2="7.89494" stroke="#858585"/>
<line x1="292.5" y1="30.2891" x2="292.5" y2="15.6838" stroke="#858585"/>
<line x1="296.5" y1="32.2373" x2="296.5" y2="12.7636" stroke="#858585"/>
<line y1="-0.5" x2="24.3421" y2="-0.5" transform="matrix(0 -1 -1 0 321 35.1582)" stroke="#858585"/>
<line y1="-0.5" x2="29.2105" y2="-0.5" transform="matrix(0 -1 -1 0 317 37.1055)" stroke="#858585"/>
<line y1="-0.5" x2="14.6053" y2="-0.5" transform="matrix(0 -1 -1 0 313 30.2891)" stroke="#858585"/>
<line y1="-0.5" x2="19.4737" y2="-0.5" transform="matrix(0 -1 -1 0 309 32.2373)" stroke="#858585"/>
<line x1="300.5" y1="27.3682" x2="300.5" y2="17.6313" stroke="#858585"/>
<line y1="-0.5" x2="24.3421" y2="-0.5" transform="matrix(0 -1 -1 0 357 35.1582)" stroke="#858585"/>
<line y1="-0.5" x2="29.2105" y2="-0.5" transform="matrix(0 -1 -1 0 353 37.1055)" stroke="#858585"/>
<line y1="-0.5" x2="14.6053" y2="-0.5" transform="matrix(0 -1 -1 0 349 30.2891)" stroke="#858585"/>
<line y1="-0.5" x2="19.4737" y2="-0.5" transform="matrix(0 -1 -1 0 345 32.2373)" stroke="#858585"/>
<line y1="-0.5" x2="9.73684" y2="-0.5" transform="matrix(0 -1 -1 0 341 27.3682)" stroke="#858585"/>
<line x1="304.5" y1="25.4209" x2="304.5" y2="20.5525" stroke="#858585"/>
<line x1="376.5" y1="27.3682" x2="376.5" y2="17.6313" stroke="#858585"/>
<line x1="380.5" y1="32.2373" x2="380.5" y2="12.7636" stroke="#858585"/>
<line x1="384.5" y1="37.1055" x2="384.5" y2="7.89494" stroke="#858585"/>
<line y1="-0.5" x2="4.86842" y2="-0.5" transform="matrix(0 -1 -1 0 485 25.4209)" stroke="#858585"/>
<line y1="-0.5" x2="9.73684" y2="-0.5" transform="matrix(0 -1 -1 0 481 27.3682)" stroke="#858585"/>
<line y1="-0.5" x2="19.4737" y2="-0.5" transform="matrix(0 -1 -1 0 477 32.2373)" stroke="#858585"/>
<line y1="-0.5" x2="29.2105" y2="-0.5" transform="matrix(0 -1 -1 0 473 37.1055)" stroke="#858585"/>
<line y1="-0.5" x2="4.86842" y2="-0.5" transform="matrix(0 -1 -1 0 449 25.4209)" stroke="#858585"/>
<line y1="-0.5" x2="9.73684" y2="-0.5" transform="matrix(0 -1 -1 0 445 27.3682)" stroke="#858585"/>
<line y1="-0.5" x2="19.4737" y2="-0.5" transform="matrix(0 -1 -1 0 441 32.2373)" stroke="#858585"/>
<line y1="-0.5" x2="29.2105" y2="-0.5" transform="matrix(0 -1 -1 0 437 37.1055)" stroke="#858585"/>
<line x1="388.5" y1="35.1582" x2="388.5" y2="10.8161" stroke="#858585"/>
<line x1="392.5" y1="41" x2="392.5" y2="4" stroke="#858585"/>
<line x1="396.5" y1="35.1582" x2="396.5" y2="10.8161" stroke="#858585"/>
<line x1="400.5" y1="37.1055" x2="400.5" y2="7.89494" stroke="#858585"/>
<line x1="404.5" y1="30.2891" x2="404.5" y2="15.6838" stroke="#858585"/>
<line x1="408.5" y1="32.2373" x2="408.5" y2="12.7636" stroke="#858585"/>
<line y1="-0.5" x2="24.3421" y2="-0.5" transform="matrix(0 -1 -1 0 433 35.1582)" stroke="#858585"/>
<line y1="-0.5" x2="29.2105" y2="-0.5" transform="matrix(0 -1 -1 0 429 37.1055)" stroke="#858585"/>
<line y1="-0.5" x2="14.6053" y2="-0.5" transform="matrix(0 -1 -1 0 425 30.2891)" stroke="#858585"/>
<line y1="-0.5" x2="19.4737" y2="-0.5" transform="matrix(0 -1 -1 0 421 32.2373)" stroke="#858585"/>
<line x1="412.5" y1="27.3682" x2="412.5" y2="17.6313" stroke="#858585"/>
<line y1="-0.5" x2="24.3421" y2="-0.5" transform="matrix(0 -1 -1 0 469 35.1582)" stroke="#858585"/>
<line y1="-0.5" x2="29.2105" y2="-0.5" transform="matrix(0 -1 -1 0 465 37.1055)" stroke="#858585"/>
<line y1="-0.5" x2="14.6053" y2="-0.5" transform="matrix(0 -1 -1 0 461 30.2891)" stroke="#858585"/>
<line y1="-0.5" x2="19.4737" y2="-0.5" transform="matrix(0 -1 -1 0 457 32.2373)" stroke="#858585"/>
<line y1="-0.5" x2="9.73684" y2="-0.5" transform="matrix(0 -1 -1 0 453 27.3682)" stroke="#858585"/>
<line x1="416.5" y1="25.4209" x2="416.5" y2="20.5525" stroke="#858585"/>
<line x1="488.5" y1="27.3682" x2="488.5" y2="17.6313" stroke="#858585"/>
<line x1="492.5" y1="32.2373" x2="492.5" y2="12.7636" stroke="#858585"/>
<line x1="496.5" y1="37.1055" x2="496.5" y2="7.89494" stroke="#858585"/>
<line y1="-0.5" x2="4.86842" y2="-0.5" transform="matrix(0 -1 -1 0 597 25.4209)" stroke="#858585"/>
<line y1="-0.5" x2="9.73684" y2="-0.5" transform="matrix(0 -1 -1 0 593 27.3682)" stroke="#858585"/>
<line y1="-0.5" x2="19.4737" y2="-0.5" transform="matrix(0 -1 -1 0 589 32.2373)" stroke="#858585"/>
<line y1="-0.5" x2="29.2105" y2="-0.5" transform="matrix(0 -1 -1 0 585 37.1055)" stroke="#858585"/>
<line y1="-0.5" x2="4.86842" y2="-0.5" transform="matrix(0 -1 -1 0 561 25.4209)" stroke="#858585"/>
<line y1="-0.5" x2="9.73684" y2="-0.5" transform="matrix(0 -1 -1 0 557 27.3682)" stroke="#858585"/>
<line y1="-0.5" x2="19.4737" y2="-0.5" transform="matrix(0 -1 -1 0 553 32.2373)" stroke="#858585"/>
<line y1="-0.5" x2="29.2105" y2="-0.5" transform="matrix(0 -1 -1 0 549 37.1055)" stroke="#858585"/>
<line x1="500.5" y1="35.1582" x2="500.5" y2="10.8161" stroke="#858585"/>
<line x1="504.5" y1="41" x2="504.5" y2="4" stroke="#858585"/>
<line x1="508.5" y1="35.1582" x2="508.5" y2="10.8161" stroke="#858585"/>
<line x1="512.5" y1="37.1055" x2="512.5" y2="7.89494" stroke="#858585"/>
<line x1="516.5" y1="30.2891" x2="516.5" y2="15.6838" stroke="#858585"/>
<line x1="520.5" y1="32.2373" x2="520.5" y2="12.7636" stroke="#858585"/>
<line y1="-0.5" x2="24.3421" y2="-0.5" transform="matrix(0 -1 -1 0 545 35.1582)" stroke="#858585"/>
<line y1="-0.5" x2="29.2105" y2="-0.5" transform="matrix(0 -1 -1 0 541 37.1055)" stroke="#858585"/>
<line y1="-0.5" x2="14.6053" y2="-0.5" transform="matrix(0 -1 -1 0 537 30.2891)" stroke="#858585"/>
<line y1="-0.5" x2="19.4737" y2="-0.5" transform="matrix(0 -1 -1 0 533 32.2373)" stroke="#858585"/>
<line x1="524.5" y1="27.3682" x2="524.5" y2="17.6313" stroke="#858585"/>
<line y1="-0.5" x2="24.3421" y2="-0.5" transform="matrix(0 -1 -1 0 581 35.1582)" stroke="#858585"/>
<line y1="-0.5" x2="29.2105" y2="-0.5" transform="matrix(0 -1 -1 0 577 37.1055)" stroke="#858585"/>
<line y1="-0.5" x2="14.6053" y2="-0.5" transform="matrix(0 -1 -1 0 573 30.2891)" stroke="#858585"/>
<line y1="-0.5" x2="19.4737" y2="-0.5" transform="matrix(0 -1 -1 0 569 32.2373)" stroke="#858585"/>
<line y1="-0.5" x2="9.73684" y2="-0.5" transform="matrix(0 -1 -1 0 565 27.3682)" stroke="#858585"/>
<line x1="528.5" y1="25.4209" x2="528.5" y2="20.5525" stroke="#858585"/>
<line x1="600.5" y1="27.3682" x2="600.5" y2="17.6313" stroke="#858585"/>
<line x1="604.5" y1="32.2373" x2="604.5" y2="12.7636" stroke="#858585"/>
<line x1="608.5" y1="37.1055" x2="608.5" y2="7.89494" stroke="#858585"/>
<line y1="-0.5" x2="4.86842" y2="-0.5" transform="matrix(0 -1 -1 0 709 25.4209)" stroke="#858585"/>
<line y1="-0.5" x2="9.73684" y2="-0.5" transform="matrix(0 -1 -1 0 705 27.3682)" stroke="#858585"/>
<line y1="-0.5" x2="19.4737" y2="-0.5" transform="matrix(0 -1 -1 0 701 32.2373)" stroke="#858585"/>
<line y1="-0.5" x2="29.2105" y2="-0.5" transform="matrix(0 -1 -1 0 697 37.1055)" stroke="#858585"/>
<line y1="-0.5" x2="4.86842" y2="-0.5" transform="matrix(0 -1 -1 0 673 25.4209)" stroke="#858585"/>
<line y1="-0.5" x2="9.73684" y2="-0.5" transform="matrix(0 -1 -1 0 669 27.3682)" stroke="#858585"/>
<line y1="-0.5" x2="19.4737" y2="-0.5" transform="matrix(0 -1 -1 0 665 32.2373)" stroke="#858585"/>
<line y1="-0.5" x2="29.2105" y2="-0.5" transform="matrix(0 -1 -1 0 661 37.1055)" stroke="#858585"/>
<line x1="612.5" y1="35.1582" x2="612.5" y2="10.8161" stroke="#858585"/>
<line x1="616.5" y1="41" x2="616.5" y2="4" stroke="#858585"/>
<line x1="620.5" y1="35.1582" x2="620.5" y2="10.8161" stroke="#858585"/>
<line x1="624.5" y1="37.1055" x2="624.5" y2="7.89494" stroke="#858585"/>
<line x1="628.5" y1="30.2891" x2="628.5" y2="15.6838" stroke="#858585"/>
<line x1="632.5" y1="32.2373" x2="632.5" y2="12.7636" stroke="#858585"/>
<line y1="-0.5" x2="24.3421" y2="-0.5" transform="matrix(0 -1 -1 0 657 35.1582)" stroke="#858585"/>
<line y1="-0.5" x2="29.2105" y2="-0.5" transform="matrix(0 -1 -1 0 653 37.1055)" stroke="#858585"/>
<line y1="-0.5" x2="14.6053" y2="-0.5" transform="matrix(0 -1 -1 0 649 30.2891)" stroke="#858585"/>
<line y1="-0.5" x2="19.4737" y2="-0.5" transform="matrix(0 -1 -1 0 645 32.2373)" stroke="#858585"/>
<line x1="636.5" y1="27.3682" x2="636.5" y2="17.6313" stroke="#858585"/>
<line y1="-0.5" x2="24.3421" y2="-0.5" transform="matrix(0 -1 -1 0 693 35.1582)" stroke="#858585"/>
<line y1="-0.5" x2="29.2105" y2="-0.5" transform="matrix(0 -1 -1 0 689 37.1055)" stroke="#858585"/>
<line y1="-0.5" x2="14.6053" y2="-0.5" transform="matrix(0 -1 -1 0 685 30.2891)" stroke="#858585"/>
<line y1="-0.5" x2="19.4737" y2="-0.5" transform="matrix(0 -1 -1 0 681 32.2373)" stroke="#858585"/>
<line y1="-0.5" x2="9.73684" y2="-0.5" transform="matrix(0 -1 -1 0 677 27.3682)" stroke="#858585"/>
<line x1="640.5" y1="25.4209" x2="640.5" y2="20.5525" stroke="#858585"/>
<line x1="712.5" y1="27.3682" x2="712.5" y2="17.6313" stroke="#858585"/>
<line x1="716.5" y1="32.2373" x2="716.5" y2="12.7636" stroke="#858585"/>
<line x1="720.5" y1="37.1055" x2="720.5" y2="7.89494" stroke="#858585"/>
<line y1="-0.5" x2="4.86842" y2="-0.5" transform="matrix(0 -1 -1 0 821 25.4209)" stroke="#858585"/>
<line y1="-0.5" x2="9.73684" y2="-0.5" transform="matrix(0 -1 -1 0 817 27.3682)" stroke="#858585"/>
<line y1="-0.5" x2="19.4737" y2="-0.5" transform="matrix(0 -1 -1 0 813 32.2373)" stroke="#858585"/>
<line y1="-0.5" x2="29.2105" y2="-0.5" transform="matrix(0 -1 -1 0 809 37.1055)" stroke="#858585"/>
<line y1="-0.5" x2="4.86842" y2="-0.5" transform="matrix(0 -1 -1 0 785 25.4209)" stroke="#858585"/>
<line y1="-0.5" x2="9.73684" y2="-0.5" transform="matrix(0 -1 -1 0 781 27.3682)" stroke="#858585"/>
<line y1="-0.5" x2="19.4737" y2="-0.5" transform="matrix(0 -1 -1 0 777 32.2373)" stroke="#858585"/>
<line y1="-0.5" x2="29.2105" y2="-0.5" transform="matrix(0 -1 -1 0 773 37.1055)" stroke="#858585"/>
<line x1="724.5" y1="35.1582" x2="724.5" y2="10.8161" stroke="#858585"/>
<line x1="728.5" y1="41" x2="728.5" y2="4" stroke="#858585"/>
<line x1="732.5" y1="35.1582" x2="732.5" y2="10.8161" stroke="#858585"/>
<line x1="736.5" y1="37.1055" x2="736.5" y2="7.89494" stroke="#858585"/>
<line x1="740.5" y1="30.2891" x2="740.5" y2="15.6838" stroke="#858585"/>
<line x1="744.5" y1="32.2373" x2="744.5" y2="12.7636" stroke="#858585"/>
<line y1="-0.5" x2="24.3421" y2="-0.5" transform="matrix(0 -1 -1 0 769 35.1582)" stroke="#858585"/>
<line y1="-0.5" x2="29.2105" y2="-0.5" transform="matrix(0 -1 -1 0 765 37.1055)" stroke="#858585"/>
<line y1="-0.5" x2="14.6053" y2="-0.5" transform="matrix(0 -1 -1 0 761 30.2891)" stroke="#858585"/>
<line y1="-0.5" x2="19.4737" y2="-0.5" transform="matrix(0 -1 -1 0 757 32.2373)" stroke="#858585"/>
<line x1="748.5" y1="27.3682" x2="748.5" y2="17.6313" stroke="#858585"/>
<line y1="-0.5" x2="24.3421" y2="-0.5" transform="matrix(0 -1 -1 0 805 35.1582)" stroke="#858585"/>
<line y1="-0.5" x2="29.2105" y2="-0.5" transform="matrix(0 -1 -1 0 801 37.1055)" stroke="#858585"/>
<line y1="-0.5" x2="14.6053" y2="-0.5" transform="matrix(0 -1 -1 0 797 30.2891)" stroke="#858585"/>
<line y1="-0.5" x2="19.4737" y2="-0.5" transform="matrix(0 -1 -1 0 793 32.2373)" stroke="#858585"/>
<line y1="-0.5" x2="9.73684" y2="-0.5" transform="matrix(0 -1 -1 0 789 27.3682)" stroke="#858585"/>
<line x1="752.5" y1="25.4209" x2="752.5" y2="20.5525" stroke="#858585"/>
<line x1="376.5" y1="27.3682" x2="376.5" y2="17.6313" stroke="#858585"/>
<line x1="380.5" y1="32.2373" x2="380.5" y2="12.7636" stroke="#858585"/>
<line x1="384.5" y1="37.1055" x2="384.5" y2="7.89494" stroke="#858585"/>
<line y1="-0.5" x2="4.86842" y2="-0.5" transform="matrix(0 -1 -1 0 485 25.4209)" stroke="#858585"/>
<line y1="-0.5" x2="9.73684" y2="-0.5" transform="matrix(0 -1 -1 0 481 27.3682)" stroke="#858585"/>
<line y1="-0.5" x2="19.4737" y2="-0.5" transform="matrix(0 -1 -1 0 477 32.2373)" stroke="#858585"/>
<line y1="-0.5" x2="29.2105" y2="-0.5" transform="matrix(0 -1 -1 0 473 37.1055)" stroke="#858585"/>
<line y1="-0.5" x2="4.86842" y2="-0.5" transform="matrix(0 -1 -1 0 449 25.4209)" stroke="#858585"/>
<line y1="-0.5" x2="9.73684" y2="-0.5" transform="matrix(0 -1 -1 0 445 27.3682)" stroke="#858585"/>
<line y1="-0.5" x2="19.4737" y2="-0.5" transform="matrix(0 -1 -1 0 441 32.2373)" stroke="#858585"/>
<line y1="-0.5" x2="29.2105" y2="-0.5" transform="matrix(0 -1 -1 0 437 37.1055)" stroke="#858585"/>
<line x1="388.5" y1="35.1582" x2="388.5" y2="10.8161" stroke="#858585"/>
<line x1="392.5" y1="41" x2="392.5" y2="4" stroke="#858585"/>
<line x1="396.5" y1="35.1582" x2="396.5" y2="10.8161" stroke="#858585"/>
<line x1="400.5" y1="37.1055" x2="400.5" y2="7.89494" stroke="#858585"/>
<line x1="404.5" y1="30.2891" x2="404.5" y2="15.6838" stroke="#858585"/>
<line x1="408.5" y1="32.2373" x2="408.5" y2="12.7636" stroke="#858585"/>
<line y1="-0.5" x2="24.3421" y2="-0.5" transform="matrix(0 -1 -1 0 433 35.1582)" stroke="#858585"/>
<line y1="-0.5" x2="29.2105" y2="-0.5" transform="matrix(0 -1 -1 0 429 37.1055)" stroke="#858585"/>
<line y1="-0.5" x2="14.6053" y2="-0.5" transform="matrix(0 -1 -1 0 425 30.2891)" stroke="#858585"/>
<line y1="-0.5" x2="19.4737" y2="-0.5" transform="matrix(0 -1 -1 0 421 32.2373)" stroke="#858585"/>
<line x1="412.5" y1="27.3682" x2="412.5" y2="17.6313" stroke="#858585"/>
<line y1="-0.5" x2="24.3421" y2="-0.5" transform="matrix(0 -1 -1 0 469 35.1582)" stroke="#858585"/>
<line y1="-0.5" x2="29.2105" y2="-0.5" transform="matrix(0 -1 -1 0 465 37.1055)" stroke="#858585"/>
<line y1="-0.5" x2="14.6053" y2="-0.5" transform="matrix(0 -1 -1 0 461 30.2891)" stroke="#858585"/>
<line y1="-0.5" x2="19.4737" y2="-0.5" transform="matrix(0 -1 -1 0 457 32.2373)" stroke="#858585"/>
<line y1="-0.5" x2="9.73684" y2="-0.5" transform="matrix(0 -1 -1 0 453 27.3682)" stroke="#858585"/>
<line x1="416.5" y1="25.4209" x2="416.5" y2="20.5525" stroke="#858585"/>
<line x1="488.5" y1="27.3682" x2="488.5" y2="17.6313" stroke="#858585"/>
<line x1="492.5" y1="32.2373" x2="492.5" y2="12.7636" stroke="#858585"/>
<line x1="496.5" y1="37.1055" x2="496.5" y2="7.89494" stroke="#858585"/>
<line y1="-0.5" x2="4.86842" y2="-0.5" transform="matrix(0 -1 -1 0 597 25.4209)" stroke="#858585"/>
<line y1="-0.5" x2="9.73684" y2="-0.5" transform="matrix(0 -1 -1 0 593 27.3682)" stroke="#858585"/>
<line y1="-0.5" x2="19.4737" y2="-0.5" transform="matrix(0 -1 -1 0 589 32.2373)" stroke="#858585"/>
<line y1="-0.5" x2="29.2105" y2="-0.5" transform="matrix(0 -1 -1 0 585 37.1055)" stroke="#858585"/>
<line y1="-0.5" x2="4.86842" y2="-0.5" transform="matrix(0 -1 -1 0 561 25.4209)" stroke="#858585"/>
<line y1="-0.5" x2="9.73684" y2="-0.5" transform="matrix(0 -1 -1 0 557 27.3682)" stroke="#858585"/>
<line y1="-0.5" x2="19.4737" y2="-0.5" transform="matrix(0 -1 -1 0 553 32.2373)" stroke="#858585"/>
<line y1="-0.5" x2="29.2105" y2="-0.5" transform="matrix(0 -1 -1 0 549 37.1055)" stroke="#858585"/>
<line x1="500.5" y1="35.1582" x2="500.5" y2="10.8161" stroke="#858585"/>
<line x1="504.5" y1="41" x2="504.5" y2="4" stroke="#858585"/>
<line x1="508.5" y1="35.1582" x2="508.5" y2="10.8161" stroke="#858585"/>
<line x1="512.5" y1="37.1055" x2="512.5" y2="7.89494" stroke="#858585"/>
<line x1="516.5" y1="30.2891" x2="516.5" y2="15.6838" stroke="#858585"/>
<line x1="520.5" y1="32.2373" x2="520.5" y2="12.7636" stroke="#858585"/>
<line y1="-0.5" x2="24.3421" y2="-0.5" transform="matrix(0 -1 -1 0 545 35.1582)" stroke="#858585"/>
<line y1="-0.5" x2="29.2105" y2="-0.5" transform="matrix(0 -1 -1 0 541 37.1055)" stroke="#858585"/>
<line y1="-0.5" x2="14.6053" y2="-0.5" transform="matrix(0 -1 -1 0 537 30.2891)" stroke="#858585"/>
<line y1="-0.5" x2="19.4737" y2="-0.5" transform="matrix(0 -1 -1 0 533 32.2373)" stroke="#858585"/>
<line x1="524.5" y1="27.3682" x2="524.5" y2="17.6313" stroke="#858585"/>
<line y1="-0.5" x2="24.3421" y2="-0.5" transform="matrix(0 -1 -1 0 581 35.1582)" stroke="#858585"/>
<line y1="-0.5" x2="29.2105" y2="-0.5" transform="matrix(0 -1 -1 0 577 37.1055)" stroke="#858585"/>
<line y1="-0.5" x2="14.6053" y2="-0.5" transform="matrix(0 -1 -1 0 573 30.2891)" stroke="#858585"/>
<line y1="-0.5" x2="19.4737" y2="-0.5" transform="matrix(0 -1 -1 0 569 32.2373)" stroke="#858585"/>
<line y1="-0.5" x2="9.73684" y2="-0.5" transform="matrix(0 -1 -1 0 565 27.3682)" stroke="#858585"/>
<line x1="528.5" y1="25.4209" x2="528.5" y2="20.5525" stroke="#858585"/>
<line x1="600.5" y1="27.3682" x2="600.5" y2="17.6313" stroke="#858585"/>
<line x1="604.5" y1="32.2373" x2="604.5" y2="12.7636" stroke="#858585"/>
<line x1="608.5" y1="37.1055" x2="608.5" y2="7.89494" stroke="#858585"/>
<line y1="-0.5" x2="4.86842" y2="-0.5" transform="matrix(0 -1 -1 0 709 25.4209)" stroke="#858585"/>
<line y1="-0.5" x2="9.73684" y2="-0.5" transform="matrix(0 -1 -1 0 705 27.3682)" stroke="#858585"/>
<line y1="-0.5" x2="19.4737" y2="-0.5" transform="matrix(0 -1 -1 0 701 32.2373)" stroke="#858585"/>
<line y1="-0.5" x2="29.2105" y2="-0.5" transform="matrix(0 -1 -1 0 697 37.1055)" stroke="#858585"/>
<line y1="-0.5" x2="4.86842" y2="-0.5" transform="matrix(0 -1 -1 0 673 25.4209)" stroke="#858585"/>
<line y1="-0.5" x2="9.73684" y2="-0.5" transform="matrix(0 -1 -1 0 669 27.3682)" stroke="#858585"/>
<line y1="-0.5" x2="19.4737" y2="-0.5" transform="matrix(0 -1 -1 0 665 32.2373)" stroke="#858585"/>
<line y1="-0.5" x2="29.2105" y2="-0.5" transform="matrix(0 -1 -1 0 661 37.1055)" stroke="#858585"/>
<line x1="612.5" y1="35.1582" x2="612.5" y2="10.8161" stroke="#858585"/>
<line x1="616.5" y1="41" x2="616.5" y2="4" stroke="#858585"/>
<line x1="620.5" y1="35.1582" x2="620.5" y2="10.8161" stroke="#858585"/>
<line x1="624.5" y1="37.1055" x2="624.5" y2="7.89494" stroke="#858585"/>
<line x1="628.5" y1="30.2891" x2="628.5" y2="15.6838" stroke="#858585"/>
<line x1="632.5" y1="32.2373" x2="632.5" y2="12.7636" stroke="#858585"/>
<line y1="-0.5" x2="24.3421" y2="-0.5" transform="matrix(0 -1 -1 0 657 35.1582)" stroke="#858585"/>
<line y1="-0.5" x2="29.2105" y2="-0.5" transform="matrix(0 -1 -1 0 653 37.1055)" stroke="#858585"/>
<line y1="-0.5" x2="14.6053" y2="-0.5" transform="matrix(0 -1 -1 0 649 30.2891)" stroke="#858585"/>
<line y1="-0.5" x2="19.4737" y2="-0.5" transform="matrix(0 -1 -1 0 645 32.2373)" stroke="#858585"/>
<line x1="636.5" y1="27.3682" x2="636.5" y2="17.6313" stroke="#858585"/>
<line y1="-0.5" x2="24.3421" y2="-0.5" transform="matrix(0 -1 -1 0 693 35.1582)" stroke="#858585"/>
<line y1="-0.5" x2="29.2105" y2="-0.5" transform="matrix(0 -1 -1 0 689 37.1055)" stroke="#858585"/>
<line y1="-0.5" x2="14.6053" y2="-0.5" transform="matrix(0 -1 -1 0 685 30.2891)" stroke="#858585"/>
<line y1="-0.5" x2="19.4737" y2="-0.5" transform="matrix(0 -1 -1 0 681 32.2373)" stroke="#858585"/>
<line y1="-0.5" x2="9.73684" y2="-0.5" transform="matrix(0 -1 -1 0 677 27.3682)" stroke="#858585"/>
<line x1="640.5" y1="25.4209" x2="640.5" y2="20.5525" stroke="#858585"/>
<line x1="712.5" y1="27.3682" x2="712.5" y2="17.6313" stroke="#858585"/>
<line x1="716.5" y1="32.2373" x2="716.5" y2="12.7636" stroke="#858585"/>
<line x1="720.5" y1="37.1055" x2="720.5" y2="7.89494" stroke="#858585"/>
<line y1="-0.5" x2="4.86842" y2="-0.5" transform="matrix(0 -1 -1 0 821 25.4209)" stroke="#858585"/>
<line y1="-0.5" x2="9.73684" y2="-0.5" transform="matrix(0 -1 -1 0 817 27.3682)" stroke="#858585"/>
<line y1="-0.5" x2="19.4737" y2="-0.5" transform="matrix(0 -1 -1 0 813 32.2373)" stroke="#858585"/>
<line y1="-0.5" x2="29.2105" y2="-0.5" transform="matrix(0 -1 -1 0 809 37.1055)" stroke="#858585"/>
<line y1="-0.5" x2="4.86842" y2="-0.5" transform="matrix(0 -1 -1 0 785 25.4209)" stroke="#858585"/>
<line y1="-0.5" x2="9.73684" y2="-0.5" transform="matrix(0 -1 -1 0 781 27.3682)" stroke="#858585"/>
<line y1="-0.5" x2="19.4737" y2="-0.5" transform="matrix(0 -1 -1 0 777 32.2373)" stroke="#858585"/>
<line y1="-0.5" x2="29.2105" y2="-0.5" transform="matrix(0 -1 -1 0 773 37.1055)" stroke="#858585"/>
<line x1="724.5" y1="35.1582" x2="724.5" y2="10.8161" stroke="#858585"/>
<line x1="728.5" y1="41" x2="728.5" y2="4" stroke="#858585"/>
<line x1="732.5" y1="35.1582" x2="732.5" y2="10.8161" stroke="#858585"/>
<line x1="736.5" y1="37.1055" x2="736.5" y2="7.89494" stroke="#858585"/>
<line x1="740.5" y1="30.2891" x2="740.5" y2="15.6838" stroke="#858585"/>
<line x1="744.5" y1="32.2373" x2="744.5" y2="12.7636" stroke="#858585"/>
<line y1="-0.5" x2="24.3421" y2="-0.5" transform="matrix(0 -1 -1 0 769 35.1582)" stroke="#858585"/>
<line y1="-0.5" x2="29.2105" y2="-0.5" transform="matrix(0 -1 -1 0 765 37.1055)" stroke="#858585"/>
<line y1="-0.5" x2="14.6053" y2="-0.5" transform="matrix(0 -1 -1 0 761 30.2891)" stroke="#858585"/>
<line y1="-0.5" x2="19.4737" y2="-0.5" transform="matrix(0 -1 -1 0 757 32.2373)" stroke="#858585"/>
<line x1="748.5" y1="27.3682" x2="748.5" y2="17.6313" stroke="#858585"/>
<line y1="-0.5" x2="24.3421" y2="-0.5" transform="matrix(0 -1 -1 0 805 35.1582)" stroke="#858585"/>
<line y1="-0.5" x2="29.2105" y2="-0.5" transform="matrix(0 -1 -1 0 801 37.1055)" stroke="#858585"/>
<line y1="-0.5" x2="14.6053" y2="-0.5" transform="matrix(0 -1 -1 0 797 30.2891)" stroke="#858585"/>
<line y1="-0.5" x2="19.4737" y2="-0.5" transform="matrix(0 -1 -1 0 793 32.2373)" stroke="#858585"/>
<line y1="-0.5" x2="9.73684" y2="-0.5" transform="matrix(0 -1 -1 0 789 27.3682)" stroke="#858585"/>
<line x1="752.5" y1="25.4209" x2="752.5" y2="20.5525" stroke="#858585"/>
<line x1="824.5" y1="27.3682" x2="824.5" y2="17.6313" stroke="#858585"/>
<line x1="828.5" y1="32.2373" x2="828.5" y2="12.7636" stroke="#858585"/>
<line x1="832.5" y1="37.1055" x2="832.5" y2="7.89494" stroke="#858585"/>
<line y1="-0.5" x2="4.86842" y2="-0.5" transform="matrix(0 -1 -1 0 933 25.4209)" stroke="#858585"/>
<line y1="-0.5" x2="9.73684" y2="-0.5" transform="matrix(0 -1 -1 0 929 27.3682)" stroke="#858585"/>
<line y1="-0.5" x2="19.4737" y2="-0.5" transform="matrix(0 -1 -1 0 925 32.2373)" stroke="#858585"/>
<line y1="-0.5" x2="29.2105" y2="-0.5" transform="matrix(0 -1 -1 0 921 37.1055)" stroke="#858585"/>
<line y1="-0.5" x2="4.86842" y2="-0.5" transform="matrix(0 -1 -1 0 897 25.4209)" stroke="#858585"/>
<line y1="-0.5" x2="9.73684" y2="-0.5" transform="matrix(0 -1 -1 0 893 27.3682)" stroke="#858585"/>
<line y1="-0.5" x2="19.4737" y2="-0.5" transform="matrix(0 -1 -1 0 889 32.2373)" stroke="#858585"/>
<line y1="-0.5" x2="29.2105" y2="-0.5" transform="matrix(0 -1 -1 0 885 37.1055)" stroke="#858585"/>
<line x1="836.5" y1="35.1582" x2="836.5" y2="10.8161" stroke="#858585"/>
<line x1="840.5" y1="41" x2="840.5" y2="4" stroke="#858585"/>
<line x1="844.5" y1="35.1582" x2="844.5" y2="10.8161" stroke="#858585"/>
<line x1="848.5" y1="37.1055" x2="848.5" y2="7.89494" stroke="#858585"/>
<line x1="852.5" y1="30.2891" x2="852.5" y2="15.6838" stroke="#858585"/>
<line x1="856.5" y1="32.2373" x2="856.5" y2="12.7636" stroke="#858585"/>
<line y1="-0.5" x2="24.3421" y2="-0.5" transform="matrix(0 -1 -1 0 881 35.1582)" stroke="#858585"/>
<line y1="-0.5" x2="29.2105" y2="-0.5" transform="matrix(0 -1 -1 0 877 37.1055)" stroke="#858585"/>
<line y1="-0.5" x2="14.6053" y2="-0.5" transform="matrix(0 -1 -1 0 873 30.2891)" stroke="#858585"/>
<line y1="-0.5" x2="19.4737" y2="-0.5" transform="matrix(0 -1 -1 0 869 32.2373)" stroke="#858585"/>
<line x1="860.5" y1="27.3682" x2="860.5" y2="17.6313" stroke="#858585"/>
<line y1="-0.5" x2="24.3421" y2="-0.5" transform="matrix(0 -1 -1 0 917 35.1582)" stroke="#858585"/>
<line y1="-0.5" x2="29.2105" y2="-0.5" transform="matrix(0 -1 -1 0 913 37.1055)" stroke="#858585"/>
<line y1="-0.5" x2="14.6053" y2="-0.5" transform="matrix(0 -1 -1 0 909 30.2891)" stroke="#858585"/>
<line y1="-0.5" x2="19.4737" y2="-0.5" transform="matrix(0 -1 -1 0 905 32.2373)" stroke="#858585"/>
<line y1="-0.5" x2="9.73684" y2="-0.5" transform="matrix(0 -1 -1 0 901 27.3682)" stroke="#858585"/>
<line x1="864.5" y1="25.4209" x2="864.5" y2="20.5525" stroke="#858585"/>
<line x1="936.5" y1="27.3682" x2="936.5" y2="17.6313" stroke="#858585"/>
<line x1="940.5" y1="32.2373" x2="940.5" y2="12.7636" stroke="#858585"/>
<line x1="944.5" y1="37.1055" x2="944.5" y2="7.89494" stroke="#858585"/>
<line y1="-0.5" x2="4.86842" y2="-0.5" transform="matrix(0 -1 -1 0 1045 25.4209)" stroke="#858585"/>
<line y1="-0.5" x2="9.73684" y2="-0.5" transform="matrix(0 -1 -1 0 1041 27.3682)" stroke="#858585"/>
<line y1="-0.5" x2="19.4737" y2="-0.5" transform="matrix(0 -1 -1 0 1037 32.2373)" stroke="#858585"/>
<line y1="-0.5" x2="29.2105" y2="-0.5" transform="matrix(0 -1 -1 0 1033 37.1055)" stroke="#858585"/>
<line y1="-0.5" x2="4.86842" y2="-0.5" transform="matrix(0 -1 -1 0 1009 25.4209)" stroke="#858585"/>
<line y1="-0.5" x2="9.73684" y2="-0.5" transform="matrix(0 -1 -1 0 1005 27.3682)" stroke="#858585"/>
<line y1="-0.5" x2="19.4737" y2="-0.5" transform="matrix(0 -1 -1 0 1001 32.2373)" stroke="#858585"/>
<line y1="-0.5" x2="29.2105" y2="-0.5" transform="matrix(0 -1 -1 0 997 37.1055)" stroke="#858585"/>
<line x1="948.5" y1="35.1582" x2="948.5" y2="10.8161" stroke="#858585"/>
<line x1="952.5" y1="41" x2="952.5" y2="4" stroke="#858585"/>
<line x1="956.5" y1="35.1582" x2="956.5" y2="10.8161" stroke="#858585"/>
<line x1="960.5" y1="37.1055" x2="960.5" y2="7.89494" stroke="#858585"/>
<line x1="964.5" y1="30.2891" x2="964.5" y2="15.6838" stroke="#858585"/>
<line x1="968.5" y1="32.2373" x2="968.5" y2="12.7636" stroke="#858585"/>
<line y1="-0.5" x2="24.3421" y2="-0.5" transform="matrix(0 -1 -1 0 993 35.1582)" stroke="#858585"/>
<line y1="-0.5" x2="29.2105" y2="-0.5" transform="matrix(0 -1 -1 0 989 37.1055)" stroke="#858585"/>
<line y1="-0.5" x2="14.6053" y2="-0.5" transform="matrix(0 -1 -1 0 985 30.2891)" stroke="#858585"/>
<line y1="-0.5" x2="19.4737" y2="-0.5" transform="matrix(0 -1 -1 0 981 32.2373)" stroke="#858585"/>
<line x1="972.5" y1="27.3682" x2="972.5" y2="17.6313" stroke="#858585"/>
<line y1="-0.5" x2="24.3421" y2="-0.5" transform="matrix(0 -1 -1 0 1029 35.1582)" stroke="#858585"/>
<line y1="-0.5" x2="29.2105" y2="-0.5" transform="matrix(0 -1 -1 0 1025 37.1055)" stroke="#858585"/>
<line y1="-0.5" x2="14.6053" y2="-0.5" transform="matrix(0 -1 -1 0 1021 30.2891)" stroke="#858585"/>
<line y1="-0.5" x2="19.4737" y2="-0.5" transform="matrix(0 -1 -1 0 1017 32.2373)" stroke="#858585"/>
<line y1="-0.5" x2="9.73684" y2="-0.5" transform="matrix(0 -1 -1 0 1013 27.3682)" stroke="#858585"/>
<line x1="976.5" y1="25.4209" x2="976.5" y2="20.5525" stroke="#858585"/>
<line x1="1048.5" y1="27.3682" x2="1048.5" y2="17.6313" stroke="#858585"/>
<line x1="1052.5" y1="32.2373" x2="1052.5" y2="12.7636" stroke="#858585"/>
<line x1="1056.5" y1="37.1055" x2="1056.5" y2="7.89494" stroke="#858585"/>
<line y1="-0.5" x2="4.86842" y2="-0.5" transform="matrix(0 -1 -1 0 1157 25.4209)" stroke="#858585"/>
<line y1="-0.5" x2="9.73684" y2="-0.5" transform="matrix(0 -1 -1 0 1153 27.3682)" stroke="#858585"/>
<line y1="-0.5" x2="19.4737" y2="-0.5" transform="matrix(0 -1 -1 0 1149 32.2373)" stroke="#858585"/>
<line y1="-0.5" x2="29.2105" y2="-0.5" transform="matrix(0 -1 -1 0 1145 37.1055)" stroke="#858585"/>
<line y1="-0.5" x2="4.86842" y2="-0.5" transform="matrix(0 -1 -1 0 1121 25.4209)" stroke="#858585"/>
<line y1="-0.5" x2="9.73684" y2="-0.5" transform="matrix(0 -1 -1 0 1117 27.3682)" stroke="#858585"/>
<line y1="-0.5" x2="19.4737" y2="-0.5" transform="matrix(0 -1 -1 0 1113 32.2373)" stroke="#858585"/>
<line y1="-0.5" x2="29.2105" y2="-0.5" transform="matrix(0 -1 -1 0 1109 37.1055)" stroke="#858585"/>
<line x1="1060.5" y1="35.1582" x2="1060.5" y2="10.8161" stroke="#858585"/>
<line x1="1064.5" y1="41" x2="1064.5" y2="4" stroke="#858585"/>
<line x1="1068.5" y1="35.1582" x2="1068.5" y2="10.8161" stroke="#858585"/>
<line x1="1072.5" y1="37.1055" x2="1072.5" y2="7.89494" stroke="#858585"/>
<line x1="1076.5" y1="30.2891" x2="1076.5" y2="15.6838" stroke="#858585"/>
<line x1="1080.5" y1="32.2373" x2="1080.5" y2="12.7636" stroke="#858585"/>
<line y1="-0.5" x2="24.3421" y2="-0.5" transform="matrix(0 -1 -1 0 1105 35.1582)" stroke="#858585"/>
<line y1="-0.5" x2="29.2105" y2="-0.5" transform="matrix(0 -1 -1 0 1101 37.1055)" stroke="#858585"/>
<line y1="-0.5" x2="14.6053" y2="-0.5" transform="matrix(0 -1 -1 0 1097 30.2891)" stroke="#858585"/>
<line y1="-0.5" x2="19.4737" y2="-0.5" transform="matrix(0 -1 -1 0 1093 32.2373)" stroke="#858585"/>
<line x1="1084.5" y1="27.3682" x2="1084.5" y2="17.6313" stroke="#858585"/>
<line y1="-0.5" x2="24.3421" y2="-0.5" transform="matrix(0 -1 -1 0 1141 35.1582)" stroke="#858585"/>
<line y1="-0.5" x2="29.2105" y2="-0.5" transform="matrix(0 -1 -1 0 1137 37.1055)" stroke="#858585"/>
<line y1="-0.5" x2="14.6053" y2="-0.5" transform="matrix(0 -1 -1 0 1133 30.2891)" stroke="#858585"/>
<line y1="-0.5" x2="19.4737" y2="-0.5" transform="matrix(0 -1 -1 0 1129 32.2373)" stroke="#858585"/>
<line y1="-0.5" x2="9.73684" y2="-0.5" transform="matrix(0 -1 -1 0 1125 27.3682)" stroke="#858585"/>
<line x1="1088.5" y1="25.4209" x2="1088.5" y2="20.5525" stroke="#858585"/>
<line x1="1160.5" y1="27.3682" x2="1160.5" y2="17.6313" stroke="#858585"/>
<line x1="1164.5" y1="32.2373" x2="1164.5" y2="12.7636" stroke="#858585"/>
<line x1="1168.5" y1="37.1055" x2="1168.5" y2="7.89494" stroke="#858585"/>
<line y1="-0.5" x2="4.86842" y2="-0.5" transform="matrix(0 -1 -1 0 1269 25.4209)" stroke="#858585"/>
<line y1="-0.5" x2="9.73684" y2="-0.5" transform="matrix(0 -1 -1 0 1265 27.3682)" stroke="#858585"/>
<line y1="-0.5" x2="19.4737" y2="-0.5" transform="matrix(0 -1 -1 0 1261 32.2373)" stroke="#858585"/>
<line y1="-0.5" x2="29.2105" y2="-0.5" transform="matrix(0 -1 -1 0 1257 37.1055)" stroke="#858585"/>
<line y1="-0.5" x2="4.86842" y2="-0.5" transform="matrix(0 -1 -1 0 1233 25.4209)" stroke="#858585"/>
<line y1="-0.5" x2="9.73684" y2="-0.5" transform="matrix(0 -1 -1 0 1229 27.3682)" stroke="#858585"/>
<line y1="-0.5" x2="19.4737" y2="-0.5" transform="matrix(0 -1 -1 0 1225 32.2373)" stroke="#858585"/>
<line y1="-0.5" x2="29.2105" y2="-0.5" transform="matrix(0 -1 -1 0 1221 37.1055)" stroke="#858585"/>
<line x1="1172.5" y1="35.1582" x2="1172.5" y2="10.8161" stroke="#858585"/>
<line x1="1176.5" y1="41" x2="1176.5" y2="4" stroke="#858585"/>
<line x1="1180.5" y1="35.1582" x2="1180.5" y2="10.8161" stroke="#858585"/>
<line x1="1184.5" y1="37.1055" x2="1184.5" y2="7.89494" stroke="#858585"/>
<line x1="1188.5" y1="30.2891" x2="1188.5" y2="15.6838" stroke="#858585"/>
<line x1="1192.5" y1="32.2373" x2="1192.5" y2="12.7636" stroke="#858585"/>
<line y1="-0.5" x2="24.3421" y2="-0.5" transform="matrix(0 -1 -1 0 1217 35.1582)" stroke="#858585"/>
<line y1="-0.5" x2="29.2105" y2="-0.5" transform="matrix(0 -1 -1 0 1213 37.1055)" stroke="#858585"/>
<line y1="-0.5" x2="14.6053" y2="-0.5" transform="matrix(0 -1 -1 0 1209 30.2891)" stroke="#858585"/>
<line y1="-0.5" x2="19.4737" y2="-0.5" transform="matrix(0 -1 -1 0 1205 32.2373)" stroke="#858585"/>
<line x1="1196.5" y1="27.3682" x2="1196.5" y2="17.6313" stroke="#858585"/>
<line y1="-0.5" x2="24.3421" y2="-0.5" transform="matrix(0 -1 -1 0 1253 35.1582)" stroke="#858585"/>
<line y1="-0.5" x2="29.2105" y2="-0.5" transform="matrix(0 -1 -1 0 1249 37.1055)" stroke="#858585"/>
<line y1="-0.5" x2="14.6053" y2="-0.5" transform="matrix(0 -1 -1 0 1245 30.2891)" stroke="#858585"/>
<line y1="-0.5" x2="19.4737" y2="-0.5" transform="matrix(0 -1 -1 0 1241 32.2373)" stroke="#858585"/>
<line y1="-0.5" x2="9.73684" y2="-0.5" transform="matrix(0 -1 -1 0 1237 27.3682)" stroke="#858585"/>
<line x1="1200.5" y1="25.4209" x2="1200.5" y2="20.5525" stroke="#858585"/>
<line x1="1272.5" y1="27.3682" x2="1272.5" y2="17.6313" stroke="#858585"/>
<line x1="1276.5" y1="32.2373" x2="1276.5" y2="12.7636" stroke="#858585"/>
<line x1="1280.5" y1="37.1055" x2="1280.5" y2="7.89494" stroke="#858585"/>
<line y1="-0.5" x2="4.86842" y2="-0.5" transform="matrix(0 -1 -1 0 1345 25.4209)" stroke="#858585"/>
<line y1="-0.5" x2="9.73684" y2="-0.5" transform="matrix(0 -1 -1 0 1341 27.3682)" stroke="#858585"/>
<line y1="-0.5" x2="19.4737" y2="-0.5" transform="matrix(0 -1 -1 0 1337 32.2373)" stroke="#858585"/>
<line y1="-0.5" x2="29.2105" y2="-0.5" transform="matrix(0 -1 -1 0 1333 37.1055)" stroke="#858585"/>
<line x1="1284.5" y1="35.1582" x2="1284.5" y2="10.8161" stroke="#858585"/>
<line x1="1288.5" y1="41" x2="1288.5" y2="4" stroke="#858585"/>
<line x1="1292.5" y1="35.1582" x2="1292.5" y2="10.8161" stroke="#858585"/>
<line x1="1296.5" y1="37.1055" x2="1296.5" y2="7.89494" stroke="#858585"/>
<line x1="1300.5" y1="30.2891" x2="1300.5" y2="15.6838" stroke="#858585"/>
<line x1="1304.5" y1="32.2373" x2="1304.5" y2="12.7636" stroke="#858585"/>
<line y1="-0.5" x2="24.3421" y2="-0.5" transform="matrix(0 -1 -1 0 1329 35.1582)" stroke="#858585"/>
<line y1="-0.5" x2="29.2105" y2="-0.5" transform="matrix(0 -1 -1 0 1325 37.1055)" stroke="#858585"/>
<line y1="-0.5" x2="14.6053" y2="-0.5" transform="matrix(0 -1 -1 0 1321 30.2891)" stroke="#858585"/>
<line y1="-0.5" x2="19.4737" y2="-0.5" transform="matrix(0 -1 -1 0 1317 32.2373)" stroke="#858585"/>
<line x1="1308.5" y1="27.3682" x2="1308.5" y2="17.6313" stroke="#858585"/>
<line y1="-0.5" x2="14.6053" y2="-0.5" transform="matrix(0 -1 -1 0 1357 30.2891)" stroke="#858585"/>
<line y1="-0.5" x2="19.4737" y2="-0.5" transform="matrix(0 -1 -1 0 1353 32.2373)" stroke="#858585"/>
<line y1="-0.5" x2="9.73684" y2="-0.5" transform="matrix(0 -1 -1 0 1349 27.3682)" stroke="#858585"/>
<line x1="1312.5" y1="25.4209" x2="1312.5" y2="20.5525" stroke="#858585"/>
</g>
<defs>
<clipPath id="clip0_6418_92055">
<rect width="1361" height="45" fill="white"/>
</clipPath>
</defs>
</svg>
