<svg width="18" height="18" viewBox="0 0 18 18" fill="var(--color-white)" xmlns="http://www.w3.org/2000/svg">
<g clip-path="url(#clip0_3292_84615)">
<path d="M18 3L18 15C18 16.65 16.65 18 15 18L3 18C1.35 18 -5.90104e-08 16.65 -1.31134e-07 15L-6.55671e-07 3C-7.27795e-07 1.35 1.35 -5.90104e-08 3 -1.31134e-07L15 -6.55671e-07C16.65 -7.27795e-07 18 1.35 18 3ZM1.5 15C1.5 15.825 2.175 16.5 3 16.5L15 16.5C15.825 16.5 16.5 15.825 16.5 15L16.5 3C16.5 2.175 15.825 1.5 15 1.5L3 1.5C2.175 1.5 1.5 2.175 1.5 3L1.5 15Z" fill="var(--color-white)"/>
<path d="M18 12.001C18 12.451 17.7 12.751 17.25 12.751L0.75 12.751C0.3 12.751 -1.31134e-08 12.451 -3.27835e-08 12.001C-5.24537e-08 11.551 0.3 11.251 0.75 11.251L17.25 11.251C17.7 11.251 18 11.551 18 12.001ZM9.75 7.50098C9.75 7.72598 9.675 7.87598 9.525 8.02598C9.225 8.32598 8.775 8.32598 8.475 8.02598L6.225 5.77598C5.925 5.47598 5.925 5.02598 6.225 4.72598C6.525 4.42598 6.975 4.42598 7.275 4.72598L9.525 6.97598C9.675 7.12598 9.75 7.27598 9.75 7.50098Z" fill="var(--color-white)"/>
<path d="M12 5.25098C12 5.47598 11.925 5.62598 11.775 5.77598L9.525 8.02598C9.225 8.32598 8.775 8.32598 8.475 8.02598C8.175 7.72598 8.175 7.27598 8.475 6.97598L10.725 4.72598C11.025 4.42598 11.475 4.42598 11.775 4.72598C11.925 4.87598 12 5.02598 12 5.25098Z" fill="var(--color-white)"/>
</g>
<defs>
<clipPath id="clip0_3292_84615">
<rect width="18" height="18" fill="var(--color-white)" transform="translate(0 18) rotate(-90)"/>
</clipPath>
</defs>
</svg>
