<svg width="18" height="18" viewBox="0 0 18 18" fill="none" xmlns="http://www.w3.org/2000/svg">
<path d="M17.8385 0.100584C17.7231 0.00831946 17.5846 -0.0147467 17.4462 0.00831955L6.36923 2.31495C6.16154 2.36108 6 2.54561 6 2.77627V12.1873C5.37692 11.4953 4.47692 11.0801 3.46154 11.0801C1.54615 11.0801 0 12.6256 0 14.5401C0 16.4546 1.54615 18 3.46154 18C5.37692 18 6.92308 16.4546 6.92308 14.5401V6.35154L17.0769 4.22944V9.85761C16.4538 9.16562 15.5308 8.75043 14.5385 8.75043C12.6231 8.75043 11.0769 10.2959 11.0769 12.2104C11.0769 14.1249 12.6231 15.6703 14.5385 15.6703C16.4538 15.6703 18 14.1249 18 12.2104V0.446578C18 0.308181 17.9308 0.169783 17.8385 0.100584ZM3.46154 17.0543C2.05385 17.0543 0.923077 15.924 0.923077 14.517C0.923077 13.11 2.05385 11.9797 3.46154 11.9797C4.86923 11.9797 6 13.11 6 14.517C6 15.924 4.86923 17.0543 3.46154 17.0543ZM14.5385 14.7477C13.1308 14.7477 12 13.6174 12 12.2104C12 10.8033 13.1308 9.67308 14.5385 9.67308C15.9462 9.67308 17.0769 10.8033 17.0769 12.2104C17.0769 13.6174 15.9462 14.7477 14.5385 14.7477ZM17.0769 3.30679L6.92308 5.42889V3.14533L17.0769 1.02323V3.30679Z" fill="#48ACE9"/>
</svg>
