<svg width="18" height="18" viewBox="0 0 18 18" fill="var(--color-white)" xmlns="http://www.w3.org/2000/svg">
<g clip-path="url(#clip0_4315_38820)">
<path d="M1.78873e-07 15L3.57746e-08 3C1.60986e-08 1.35 1.35 1.98549e-07 3 1.78873e-07L15 3.57746e-08C16.65 1.60986e-08 18 1.35 18 3L18 15C18 16.65 16.65 18 15 18L3 18C1.35 18 1.98549e-07 16.65 1.78873e-07 15ZM16.5 3C16.5 2.175 15.825 1.5 15 1.5L3 1.5C2.175 1.5 1.5 2.175 1.5 3L1.5 15C1.5 15.825 2.175 16.5 3 16.5L15 16.5C15.825 16.5 16.5 15.825 16.5 15L16.5 3Z" fill="var(--color-white)"/>
<path d="M8.94366e-09 5.99927C3.57747e-09 5.54927 0.299999 5.24927 0.75 5.24927L17.25 5.24927C17.7 5.24927 18 5.54927 18 5.99927C18 6.44927 17.7 6.74927 17.25 6.74927L0.75 6.74927C0.299999 6.74927 1.43099e-08 6.44927 8.94366e-09 5.99927ZM8.25 10.4993C8.25 10.2743 8.325 10.1243 8.475 9.97427C8.775 9.67427 9.225 9.67427 9.525 9.97427L11.775 12.2243C12.075 12.5243 12.075 12.9743 11.775 13.2743C11.475 13.5743 11.025 13.5743 10.725 13.2743L8.475 11.0243C8.325 10.8743 8.25 10.7243 8.25 10.4993Z" fill="var(--color-white)"/>
<path d="M6 12.7493C6 12.5243 6.075 12.3743 6.225 12.2243L8.475 9.97427C8.775 9.67427 9.225 9.67427 9.525 9.97427C9.825 10.2743 9.825 10.7243 9.525 11.0243L7.275 13.2743C6.975 13.5743 6.525 13.5743 6.225 13.2743C6.075 13.1243 6 12.9743 6 12.7493Z" fill="var(--color-white)"/>
</g>
<defs>
<clipPath id="clip0_4315_38820">
<rect width="18" height="18" fill="var(--color-white)" transform="translate(18) rotate(90)"/>
</clipPath>
</defs>
</svg>
