<svg width="20" height="15" viewBox="0 0 20 15" fill="none" xmlns="http://www.w3.org/2000/svg">
<g id="Movie">
<path id="Vector" d="M19.6587 0.000335812C14.7342 -0.000686906 5.26644 0.00101762 0.341446 0.000335812C0.153037 0.000335812 0.000536822 0.11471 0.000536822 0.256015C0.00417318 4.90666 -0.0017359 10.0935 0.000536822 14.742C0.000536822 14.8831 0.153037 14.9976 0.341446 14.9976C5.1628 15.005 14.898 14.9924 19.6587 14.9976C19.8471 14.9976 19.9996 14.8831 19.9996 14.742C19.9973 12.1468 20.0012 8.6002 19.9996 6.0054V3.24303V0.256015C19.9996 0.11471 19.8471 0.000335812 19.6587 0.000335812ZM19.3178 5.86222H16.0164V3.38604H19.318V5.86222H19.3178ZM19.3178 8.73691H16.0164V6.2609H19.318V8.73691H19.3178ZM16.0164 9.1356H19.318V11.6118H16.0164V9.1356ZM19.3178 2.98752H16.0164V0.511354H19.318V2.98752H19.3178ZM0.682354 6.2609H3.98394V8.73708H0.682354V6.2609ZM3.98394 5.86222H0.682354V3.38604H3.98394V5.86222ZM0.682354 9.1356H3.98394V11.6118H0.682354V9.1356ZM0.682354 0.511354H3.98394V2.98752H0.682354V0.511354ZM0.682354 12.0103H3.98394V14.4865H0.682354V12.0103ZM4.66576 11.7548C4.66576 8.23339 4.66576 4.03206 4.66576 0.511524H15.3346C15.3346 4.9912 15.3346 10.0066 15.3346 14.4861H4.66576V11.7548ZM19.3178 14.4865H16.0164V12.0103H19.318V14.4865H19.3178Z" fill="#C8C8C8"/>
<path id="Vector_2" d="M12.4686 7.2825L8.52197 5.04173C8.33496 4.92881 8.05759 5.05969 8.06509 5.25911V9.74064C8.05819 9.93937 8.33476 10.0716 8.52197 9.95801L12.4686 7.71725C12.6457 7.62246 12.6463 7.37729 12.4686 7.2825ZM8.65671 9.26393V5.73582L11.7637 7.49987L8.65671 9.26393Z" fill="#C8C8C8"/>
</g>
</svg>
