<svg width="17" height="17" viewBox="0 0 17 17" fill="none" xmlns="http://www.w3.org/2000/svg">
<g id="Voice">
<path id="Person" d="M8.47507 9.54615C10.9927 9.54615 13.0117 7.40154 13.0117 4.78615C13.0117 2.17077 10.9927 0 8.47507 0C5.95748 0 3.93842 2.14462 3.93842 4.76C3.93842 7.37538 5.95748 9.54615 8.47507 9.54615ZM8.47507 1.25538C10.3196 1.25538 11.8153 2.82462 11.8153 4.76C11.8153 6.69538 10.3196 8.26462 8.47507 8.26462C6.6305 8.26462 5.1349 6.72154 5.1349 4.78615C5.1349 2.85077 6.6305 1.25538 8.47507 1.25538ZM0.59824 17H16.4018C16.7258 17 17 16.7123 17 16.3723C17 13.0769 14.4326 10.3831 11.2918 10.3831H5.70821C2.56745 10.3831 0 13.0769 0 16.3723C0 16.7123 0.274193 17 0.59824 17ZM5.70821 11.6385H11.2918C13.585 11.6385 15.4545 13.4169 15.7537 15.7446H1.24633C1.54545 13.4169 3.41496 11.6385 5.70821 11.6385Z" fill="var(--color-white)"/>
</g>
</svg>
