<svg width="19" height="20" viewBox="0 0 19 20" fill="none" xmlns="http://www.w3.org/2000/svg">
<path d="M14.8665 9.57102H10.5199V5.22443C10.5199 5.0323 10.4436 4.84804 10.3077 4.71218C10.1718 4.57632 9.98759 4.5 9.79545 4.5C9.60332 4.5 9.41906 4.57632 9.2832 4.71218C9.14735 4.84804 9.07102 5.0323 9.07102 5.22443V9.57102H4.72443C4.5323 9.57102 4.34804 9.64735 4.21218 9.7832C4.07632 9.91906 4 10.1033 4 10.2955C4 10.4876 4.07632 10.6718 4.21218 10.8077C4.34804 10.9436 4.5323 11.0199 4.72443 11.0199H9.07102V15.3665C9.07102 15.5586 9.14735 15.7429 9.2832 15.8787C9.41906 16.0146 9.60332 16.0909 9.79545 16.0909C9.98759 16.0909 10.1718 16.0146 10.3077 15.8787C10.4436 15.7429 10.5199 15.5586 10.5199 15.3665V11.0199H14.8665C15.0586 11.0199 15.2429 10.9436 15.3787 10.8077C15.5146 10.6718 15.5909 10.4876 15.5909 10.2955C15.5909 10.1033 15.5146 9.91906 15.3787 9.7832C15.2429 9.64735 15.0586 9.57102 14.8665 9.57102Z" fill="var(--color-white)"/>
<circle cx="9.5" cy="10" r="7.92045" stroke="var(--color-white)" stroke-width="1.15909"/>
</svg>
