<svg width="31" height="31" viewBox="0 0 31 31" fill="none" xmlns="http://www.w3.org/2000/svg">
<rect x="0.392578" y="0.5" width="30" height="30" rx="15" fill="#515861"/>
<path d="M10.1304 23.5577C11.801 23.5577 13.1553 22.2034 13.1553 20.5327C13.1553 18.8621 11.801 17.5078 10.1304 17.5078C8.45978 17.5078 7.10547 18.8621 7.10547 20.5327C7.10547 22.2034 8.45978 23.5577 10.1304 23.5577Z" stroke="white" stroke-width="0.75" stroke-miterlimit="10"/>
<path d="M13.165 20.5319V6.91016C13.165 6.91016 17.3315 7.92798 17.7024 11.4476C17.9593 13.8732 16.7036 14.501 16.7036 14.501" stroke="white" stroke-width="0.75" stroke-linecap="round" stroke-linejoin="round"/>
<path d="M17.9783 18.4116C17.8261 18.3546 17.8261 18.0882 17.9783 18.0311L18.901 17.6697C19.1008 17.5936 19.291 17.4604 19.4337 17.2797C19.5764 17.0989 19.7001 16.8897 19.7667 16.6519L20.0711 15.577C20.1186 15.3962 20.3469 15.3962 20.3945 15.577L20.6989 16.6519C20.7655 16.8897 20.8796 17.0989 21.0318 17.2797C21.184 17.4604 21.3647 17.5841 21.574 17.6697L22.4967 18.0311C22.4967 18.0311 22.5633 18.0692 22.5823 18.1072C22.6014 18.1453 22.6109 18.1833 22.6109 18.2214C22.6109 18.2594 22.6014 18.307 22.5823 18.3355C22.5633 18.3736 22.5348 18.3926 22.4967 18.4116L21.574 18.7731C21.3743 18.8492 21.184 18.9824 21.0413 19.1631C20.8891 19.3439 20.775 19.5531 20.7084 19.7909L20.404 20.8658C20.404 20.8658 20.3755 20.9419 20.3374 20.961C20.3089 20.9895 20.2708 20.999 20.2328 20.999C20.1947 20.999 20.1567 20.9895 20.1281 20.961C20.0996 20.9324 20.0806 20.9039 20.0616 20.8658L19.7572 19.7909C19.6906 19.5531 19.5764 19.3439 19.4242 19.1631C19.272 18.9824 19.0913 18.8587 18.8915 18.7731L17.9688 18.4116H17.9783ZM15.5527 20.5614C15.5527 20.5614 15.5146 20.5424 15.5051 20.5139C15.4956 20.4948 15.4861 20.4663 15.4861 20.4473C15.4861 20.4283 15.4861 20.3997 15.5051 20.3807C15.5146 20.3617 15.5337 20.3426 15.5527 20.3331L16.1044 20.1144C16.3517 20.0192 16.542 19.7909 16.6276 19.5056L16.8083 18.8587C16.8083 18.8587 16.8273 18.8112 16.8464 18.8016C16.8654 18.7826 16.8844 18.7826 16.9034 18.7826C16.9225 18.7826 16.951 18.7826 16.9605 18.8016C16.9795 18.8207 16.9891 18.8397 16.9986 18.8587L17.1793 19.5056C17.2174 19.6482 17.2839 19.7719 17.3791 19.8861C17.4742 19.9907 17.5788 20.0668 17.7025 20.1144L18.2542 20.3331C18.2542 20.3331 18.2923 20.3522 18.3018 20.3807C18.3113 20.3997 18.3208 20.4283 18.3208 20.4473C18.3208 20.4663 18.3208 20.4948 18.3018 20.5139C18.2923 20.5329 18.2732 20.5519 18.2542 20.5614L17.7025 20.7802C17.5788 20.8278 17.4742 20.9039 17.3791 21.0085C17.2839 21.1132 17.2174 21.2463 17.1793 21.389L16.9986 22.0359C16.9986 22.0359 16.9795 22.0834 16.9605 22.0929C16.9415 22.1119 16.9225 22.1119 16.9034 22.1119C16.8844 22.1119 16.8559 22.1119 16.8464 22.0929C16.8273 22.0739 16.8178 22.0549 16.8083 22.0359L16.6276 21.389C16.5895 21.2463 16.523 21.1227 16.4278 21.0085C16.3327 20.9039 16.2281 20.8278 16.1044 20.7802L15.5527 20.5614ZM15.0485 16.6328C15.0485 16.6328 15.02 16.6138 15.0105 16.6043C15.0105 16.5948 15.001 16.5758 15.001 16.5567C15.001 16.5377 15.001 16.5282 15.0105 16.5092C15.0105 16.4997 15.0295 16.4806 15.0485 16.4806L15.4195 16.3379C15.5812 16.2714 15.7144 16.1192 15.7715 15.9289L15.8951 15.5009C15.8951 15.5009 15.9047 15.4723 15.9237 15.4628C15.9332 15.4533 15.9522 15.4438 15.9617 15.4438C15.9712 15.4438 15.9903 15.4438 15.9998 15.4628C16.0093 15.4723 16.0188 15.4818 16.0283 15.5009L16.152 15.9289C16.1805 16.024 16.2281 16.1096 16.2851 16.1762C16.3422 16.2428 16.4183 16.2999 16.5039 16.3284L16.8749 16.4711C16.8749 16.4711 16.9034 16.4901 16.913 16.4997C16.913 16.5092 16.9225 16.5282 16.9225 16.5472C16.9225 16.5662 16.9225 16.5758 16.913 16.5948C16.9034 16.6138 16.8939 16.6233 16.8749 16.6233L16.5039 16.766C16.4183 16.7945 16.3517 16.8516 16.2851 16.9182C16.2281 16.9848 16.1805 17.0704 16.152 17.1655L16.0283 17.5936C16.0283 17.5936 16.0188 17.6221 15.9998 17.6316C15.9903 17.6411 15.9712 17.6507 15.9617 17.6507C15.9522 17.6507 15.9332 17.6507 15.9237 17.6316C15.9142 17.6221 15.9047 17.6126 15.8951 17.5936L15.7715 17.1655C15.7144 16.9753 15.5907 16.8231 15.4195 16.7565L15.0485 16.6138V16.6328Z" fill="white"/>
</svg>
