<svg width="106" height="16" viewBox="0 0 106 16" fill="none" xmlns="http://www.w3.org/2000/svg">
<g clip-path="url(#clip0_8780_385560)">
<path d="M39.7429 4.23633H37.0977L40.2937 13.9097H43.1416L46.3376 4.23633H43.6924L41.6907 11.523L39.7429 4.23633Z" fill="white"/>
<path d="M2.83984 1H5.57682V13.9099H2.83984V1Z" fill="white"/>
<path d="M8.27539 1H11.0124V13.9099H8.27539V1Z" fill="white"/>
<path d="M13.7148 1H21.8157V3.15165H16.4518V6.22543H21.4483V8.37709H16.4518V11.7583H21.8157V13.9099H13.7148V1Z" fill="white"/>
<path d="M23.4844 1H26.0745V13.9099H23.4844V1Z" fill="white"/>
<path d="M27.6367 9.06415C27.6367 5.53834 29.4188 4.01953 32.1928 4.01953C34.9668 4.01953 36.5464 5.52026 36.5464 9.10032V9.67891H30.1902C30.282 11.7763 30.9256 12.4815 32.1559 12.4815C33.1298 12.4815 33.7355 11.921 33.8462 10.9446H36.4357C36.271 13.0782 34.4709 14.1268 32.1559 14.1268C29.2173 14.1268 27.6367 12.5899 27.6367 9.06415ZM33.9929 7.99737C33.8642 6.22542 33.2396 5.64683 32.1559 5.64683C31.0723 5.64683 30.3927 6.24351 30.2091 7.99737H33.9929Z" fill="white"/>
<path d="M46.834 9.06415C46.834 5.53834 48.6161 4.01953 51.3891 4.01953C54.1631 4.01953 55.7427 5.52026 55.7427 9.10032V9.67891H49.3874C49.4793 11.7763 50.1219 12.4815 51.3532 12.4815C52.3261 12.4815 52.9328 11.921 53.0426 10.9446H55.6329C55.4673 13.0782 53.6672 14.1268 51.3532 14.1268C48.4136 14.1268 46.834 12.5899 46.834 9.06415ZM53.1892 7.99737C53.0615 6.22542 52.4368 5.64683 51.3532 5.64683C50.2686 5.64683 49.589 6.24351 49.4054 7.99737H53.1892Z" fill="white"/>
<path d="M68.0117 1H70.7488V11.7583H75.8926V13.9099H68.0117V1Z" fill="white"/>
<path fill-rule="evenodd" clip-rule="evenodd" d="M76.5352 9.06415C76.5352 5.37561 78.2614 4.01953 80.4846 4.01953C81.5862 4.01953 82.597 4.63428 83.0012 5.28521V4.2365H85.6464V13.9098H83.074V12.7708C82.6888 13.5302 81.6052 14.1268 80.4108 14.1268C78.0599 14.1268 76.5352 12.6442 76.5352 9.06415ZM81.1641 5.91804C82.4503 5.91804 83.1479 6.87634 83.1479 9.06415C83.1479 11.252 82.4503 12.2284 81.1641 12.2284C79.8779 12.2284 79.1435 11.252 79.1435 9.06415C79.1435 6.87634 79.8779 5.91804 81.1641 5.91804Z" fill="white"/>
<path fill-rule="evenodd" clip-rule="evenodd" d="M90.2208 12.7708V13.9099H87.6484V1H90.2388V5.28522C90.6798 4.61622 91.7086 4.01955 92.8103 4.01955C94.9785 4.01955 96.7048 5.37563 96.7048 9.06417C96.7048 12.7527 95.0145 14.1269 92.7554 14.1269C91.561 14.1269 90.588 13.5302 90.2208 12.7708ZM92.0758 5.93614C93.362 5.93614 94.0965 6.87636 94.0965 9.06417C94.0965 11.252 93.362 12.2284 92.0758 12.2284C90.7896 12.2284 90.0921 11.252 90.0921 9.06417C90.0921 6.87636 90.7896 5.93614 92.0758 5.93614Z" fill="white"/>
<path d="M97.7695 11.035H100.359C100.396 12.0476 100.948 12.5357 101.921 12.5357C102.894 12.5357 103.445 12.1018 103.445 11.3423C103.445 10.6553 103.023 10.4022 102.104 10.1852L101.315 9.98629C99.0737 9.42578 97.9531 8.8291 97.9531 7.00291C97.9531 5.17672 99.6794 4.01953 101.884 4.01953C104.088 4.01953 105.76 4.86934 105.833 6.87634H103.244C103.188 5.99037 102.637 5.61067 101.848 5.61067C101.057 5.61067 100.507 5.99037 100.507 6.71362C100.507 7.38261 100.948 7.63575 101.719 7.81656L102.527 8.01545C104.658 8.5398 105.999 9.06415 105.999 11.0169C105.999 12.9697 104.236 14.1268 101.848 14.1268C99.2573 14.1268 97.8244 13.1686 97.7695 11.035Z" fill="white"/>
<path d="M59.93 8.21434C59.93 6.69553 60.6645 5.8638 61.803 5.8638C62.74 5.8638 63.2728 6.4424 63.2728 7.69V13.9098H65.8632V7.29221C65.8632 5.05015 64.577 4.01953 62.7031 4.01953C61.4358 4.01953 60.389 4.65237 59.93 5.4841V4.2365H57.3027V13.9098H59.93V8.21434Z" fill="white"/>
</g>
<defs>
<clipPath id="clip0_8780_385560">
<rect width="106" height="16" fill="white"/>
</clipPath>
</defs>
</svg>
