<svg width="8" height="14" viewBox="0 0 8 14" fill="none" xmlns="http://www.w3.org/2000/svg">
<path d="M7.69062 12.2032C7.88882 12.4012 8 12.6686 8 12.9472C8 13.2259 7.88882 13.4933 7.69062 13.6913C7.59329 13.7891 7.47728 13.8667 7.34934 13.9197C7.2214 13.9727 7.08408 14 6.94537 14C6.80667 14 6.66935 13.9727 6.5414 13.9197C6.41346 13.8667 6.29745 13.7891 6.20012 13.6913L0.308891 7.74483C0.110968 7.54637 -3.18166e-07 7.27879 -3.0598e-07 7C-2.93793e-07 6.72121 0.110968 6.45363 0.308891 6.25517L6.20012 0.30868C6.29745 0.210916 6.41346 0.133278 6.5414 0.0802844C6.66935 0.0272906 6.80667 -5.21623e-08 6.94537 -4.60993e-08C7.08408 -4.00363e-08 7.2214 0.0272907 7.34934 0.0802844C7.47728 0.133278 7.59329 0.210916 7.69062 0.30868C7.88882 0.506695 8 0.774093 8 1.05275C8 1.33141 7.88882 1.59881 7.69062 1.79682L2.85919 7.00228L7.69062 12.2032Z" fill="var(--color-white)"/>
</svg>
