<svg width="30" height="31" viewBox="0 0 30 31" fill="none" xmlns="http://www.w3.org/2000/svg">
<g clip-path="url(#clip0_9176_28729)">
<path d="M15.0004 30.5984C23.3399 30.5984 30.1004 23.8379 30.1004 15.4984C30.1004 7.15894 23.3399 0.398438 15.0004 0.398438C6.66089 0.398438 -0.0996094 7.15894 -0.0996094 15.4984C-0.0996094 23.8379 6.66089 30.5984 15.0004 30.5984Z" fill="#515861"/>
<path d="M22.7734 12.8208H10.5593L13.4658 11.7977L13.467 11.7973L18.588 9.99478L18.5905 9.99387L23.3329 8.32458C23.4588 8.28027 23.5745 8.21241 23.6733 8.12486C23.7721 8.03732 23.8521 7.93181 23.9087 7.81436C23.9653 7.69691 23.9975 7.56983 24.0033 7.44036C24.0091 7.3109 23.9885 7.18159 23.9427 7.05982L23.6001 6.14923C23.5073 5.90341 23.3174 5.70323 23.0722 5.59262C22.8269 5.482 22.5463 5.46998 22.2919 5.55919L12.9802 8.83705L7.50677 10.7638C7.38084 10.8081 7.26516 10.8759 7.16634 10.9635C7.06752 11.051 6.98749 11.1565 6.93084 11.2739C6.87418 11.3914 6.842 11.5185 6.83613 11.648C6.83027 11.7774 6.85083 11.9068 6.89664 12.0285L7.06921 12.4872C6.96645 12.6357 6.89547 12.8025 6.86045 12.9779C6.84368 13.0131 6.83499 13.0513 6.83496 13.09V22.5287C6.83538 22.8855 6.98212 23.2276 7.24301 23.4799C7.5039 23.7322 7.85761 23.8741 8.22656 23.8745H22.7734C23.1424 23.8741 23.4961 23.7322 23.757 23.4799C24.0179 23.2276 24.1646 22.8855 24.165 22.5287V14.1666C24.1646 13.8098 24.0179 13.4677 23.757 13.2154C23.4961 12.9631 23.1424 12.8212 22.7734 12.8208ZM19.4698 13.3591H21.6808L21.2567 15.0818H19.0457L19.4698 13.3591ZM16.6866 13.3591H18.8976L18.4735 15.0818H16.2625L16.6866 13.3591ZM13.9034 13.3591H16.1144L15.6903 15.0818H13.4793L13.9034 13.3591ZM11.1202 13.3591H13.3312L12.9071 15.0818H10.6961L11.1202 13.3591ZM22.4823 6.06503C22.598 6.02449 22.7256 6.02997 22.8371 6.08027C22.9486 6.13057 23.0349 6.22159 23.0771 6.33336L23.4196 7.24394C23.4405 7.29928 23.4498 7.35805 23.4472 7.4169C23.4445 7.47574 23.4299 7.5335 23.4042 7.58688C23.3785 7.64026 23.3421 7.68821 23.2972 7.728C23.2523 7.76778 23.1997 7.79862 23.1425 7.81874L21.154 8.51868L20.9283 6.61207L22.4823 6.06503ZM20.3905 6.8014L20.6161 8.708L18.7289 9.37229L18.473 7.4764L20.3905 6.8014ZM17.937 7.66505L18.193 9.56092L16.2223 10.2546L16.0034 8.34572L17.937 7.66505ZM15.4651 8.53521L15.684 10.4441L13.6113 11.1736L13.3718 9.2721L15.4651 8.53521ZM12.8348 9.46111L13.0744 11.3626L11.1368 12.0447L10.9113 10.1382L12.8348 9.46111ZM7.43523 11.5016C7.46088 11.4481 7.49724 11.4001 7.54221 11.3603C7.58718 11.3205 7.63986 11.2896 7.69721 11.2696L10.3735 10.3275L10.5989 12.234L9.47046 12.6312C9.38471 12.4652 9.26435 12.3182 9.11697 12.1994C8.96959 12.0806 8.79838 11.9926 8.6141 11.9409C8.42983 11.8892 8.23649 11.875 8.04626 11.8991C7.85602 11.9232 7.673 11.9852 7.50873 12.081L7.41971 11.8444C7.39871 11.7891 7.38927 11.7304 7.39194 11.6715C7.3946 11.6127 7.40932 11.5549 7.43523 11.5016ZM8.22656 12.426C8.41304 12.4263 8.59409 12.4868 8.74093 12.598C8.88777 12.7091 8.99199 12.8646 9.03701 13.0396L9.03743 13.0413C9.07876 13.2045 9.06646 13.376 9.00222 13.5321C8.93799 13.6882 8.82503 13.821 8.67908 13.912C8.53313 14.0031 8.36145 14.0478 8.18795 14.0401C8.01445 14.0323 7.84777 13.9724 7.71113 13.8687C7.57449 13.765 7.47468 13.6227 7.42561 13.4616C7.37654 13.3005 7.38066 13.1285 7.43738 12.9698C7.4941 12.811 7.6006 12.6733 7.74206 12.5759C7.88352 12.4784 8.05288 12.426 8.22656 12.426ZM7.3916 14.3095C7.58938 14.4533 7.82325 14.5434 8.06907 14.5706C8.3149 14.5978 8.56379 14.5611 8.79005 14.4643C9.01632 14.3675 9.21177 14.214 9.35623 14.0197C9.5007 13.8254 9.58896 13.5974 9.6119 13.3591H10.548L10.1239 15.0818H7.3916V14.3095ZM7.3916 17.7734H11.6035V21.0034H7.3916V17.7734ZM23.6084 22.5287C23.6082 22.7428 23.5201 22.948 23.3636 23.0994C23.207 23.2508 22.9948 23.336 22.7734 23.3362H8.22656C8.00519 23.336 7.79296 23.2508 7.63643 23.0994C7.4799 22.948 7.39185 22.7428 7.3916 22.5287V21.5418H23.6084V22.5287ZM11.6035 21.0034V17.7734H15.7783V21.0034H11.6035ZM15.7783 21.0034V17.7734H19.9531V21.0034H15.7783ZM23.6084 21.0034H19.9531V17.7734H23.6084V21.0034ZM23.6084 17.2351H7.3916V15.6201H10.3428L10.344 15.6202L13.126 15.6201L13.1272 15.6202L15.9092 15.6201L15.9104 15.6202L18.6924 15.6201L18.6936 15.6202L21.4756 15.6201L21.4768 15.6202L23.6084 15.6201V17.2351ZM23.6084 15.0818H21.8289L22.253 13.3591H22.7734C22.9948 13.3594 23.207 13.4445 23.3636 13.5959C23.5201 13.7473 23.6082 13.9525 23.6084 14.1666V15.0818Z" fill="white"/>
</g>
<defs>
<clipPath id="clip0_9176_28729">
<rect width="30" height="30" fill="white" transform="translate(0 0.5)"/>
</clipPath>
</defs>
</svg>
