<svg width="23" height="23" viewBox="0 0 23 23" fill="none" xmlns="http://www.w3.org/2000/svg">
<path d="M17.1938 13.4438H14.3625C14.1967 13.4438 14.0378 13.5096 13.9206 13.6268C13.8033 13.744 13.7375 13.903 13.7375 14.0688C13.7375 14.2345 13.8033 14.3935 13.9206 14.5107C14.0378 14.6279 14.1967 14.6938 14.3625 14.6938H15.8625C15.1731 15.4142 14.284 15.9121 13.3095 16.1234C12.335 16.3347 11.3195 16.2498 10.3936 15.8795C9.46772 15.5093 8.67367 14.8707 8.11349 14.0457C7.55332 13.2208 7.25261 12.2472 7.25 11.25C7.25 11.0842 7.18415 10.9253 7.06694 10.8081C6.94973 10.6908 6.79076 10.625 6.625 10.625C6.45924 10.625 6.30027 10.6908 6.18306 10.8081C6.06585 10.9253 6 11.0842 6 11.25C6.0033 12.4705 6.36389 13.6633 7.03725 14.6813C7.71062 15.6992 8.66729 16.4977 9.78921 16.9783C10.9111 17.4588 12.1492 17.6003 13.3506 17.3854C14.5521 17.1705 15.6643 16.6085 16.55 15.7687V16.875C16.55 17.0408 16.6158 17.1997 16.7331 17.3169C16.8503 17.4342 17.0092 17.5 17.175 17.5C17.3408 17.5 17.4997 17.4342 17.6169 17.3169C17.7342 17.1997 17.8 17.0408 17.8 16.875V14.0625C17.7985 13.901 17.7345 13.7464 17.6215 13.6311C17.5084 13.5157 17.3552 13.4486 17.1938 13.4438ZM12.25 5C10.6477 5.00457 9.10843 5.62432 7.95 6.73125V5.625C7.95 5.45924 7.88415 5.30027 7.76694 5.18306C7.64973 5.06585 7.49076 5 7.325 5C7.15924 5 7.00027 5.06585 6.88306 5.18306C6.76585 5.30027 6.7 5.45924 6.7 5.625V8.4375C6.7 8.60326 6.76585 8.76223 6.88306 8.87944C7.00027 8.99665 7.15924 9.0625 7.325 9.0625H10.1375C10.3033 9.0625 10.4622 8.99665 10.5794 8.87944C10.6967 8.76223 10.7625 8.60326 10.7625 8.4375C10.7625 8.27174 10.6967 8.11277 10.5794 7.99556C10.4622 7.87835 10.3033 7.8125 10.1375 7.8125H8.6375C9.32654 7.09242 10.2151 6.59469 11.189 6.38319C12.1629 6.1717 13.1779 6.25609 14.1035 6.62554C15.0291 6.99499 15.8232 7.63263 16.3839 8.45663C16.9445 9.28062 17.2462 10.2534 17.25 11.25C17.25 11.4158 17.3158 11.5747 17.4331 11.6919C17.5503 11.8092 17.7092 11.875 17.875 11.875C18.0408 11.875 18.1997 11.8092 18.3169 11.6919C18.4342 11.5747 18.5 11.4158 18.5 11.25C18.5 10.4292 18.3383 9.61651 18.0242 8.85823C17.7102 8.09994 17.2498 7.41095 16.6694 6.83058C16.0891 6.25022 15.4001 5.78984 14.6418 5.47575C13.8835 5.16166 13.0708 5 12.25 5Z" fill="var(--color-primary)"/>
</svg>
