<svg width="21" height="21" viewBox="0 0 21 21" fill="none" xmlns="http://www.w3.org/2000/svg">
<path d="M0.460449 10.2698C0.460449 4.59793 5.05838 0 10.7302 0C16.402 0 21 4.59793 21 10.2698C21 15.9416 16.402 20.5395 10.7302 20.5395C5.05838 20.5395 0.460449 15.9416 0.460449 10.2698ZM10.4494 5.19054C10.3642 5.22581 10.2842 5.27783 10.2146 5.34663L10.2112 5.35003L6.54374 9.01751C6.25726 9.30398 6.25726 9.76843 6.54374 10.0549C6.83021 10.3414 7.29467 10.3414 7.58113 10.0549L9.99665 7.63939V14.6711C9.99665 15.0762 10.3251 15.4046 10.7302 15.4046C11.1353 15.4046 11.4638 15.0762 11.4638 14.6711V7.63939L13.8792 10.0549C14.1657 10.3414 14.6302 10.3414 14.9167 10.0549C15.2031 9.76843 15.2031 9.30398 14.9167 9.01751L11.2492 5.35003L11.2458 5.34663C11.1133 5.2157 10.9312 5.13488 10.7302 5.13488C10.6308 5.13488 10.5359 5.15467 10.4494 5.19054Z" fill="#9E9E9E"/>
</svg>
