<svg width="16" height="12" viewBox="0 0 16 12" fill="none" xmlns="http://www.w3.org/2000/svg">
<path d="M9.4 0C10.8359 0 12 1.16406 12 2.6V2.7384L15.0912 0.883997C15.4911 0.643891 16 0.931947 16 1.3984V10.6C16 11.0664 15.4912 11.3544 15.0913 11.1145L12 9.26V9.4C12 10.8359 10.8359 12 9.4 12H2.6C1.16406 12 0 10.8359 0 9.4V2.6C0 1.16406 1.16406 0 2.6 0H9.4ZM9.4 1.2H2.6C1.8268 1.2 1.2 1.8268 1.2 2.6V9.4C1.2 10.1732 1.8268 10.8 2.6 10.8H9.4C10.1732 10.8 10.8 10.1732 10.8 9.4V2.6C10.8 1.8268 10.1732 1.2 9.4 1.2ZM14.8 2.45848L12 4.1396V7.86029L14.8 9.54029V2.45848Z" fill="white"/>
</svg>
