<svg width="16" height="16" viewBox="0 0 16 16"  xmlns="http://www.w3.org/2000/svg">
<path d="M15.5956 1.97778L14.3644 0.484445C14.2382 0.333549 14.0805 0.212027 13.9024 0.128355C13.7243 0.0446844 13.5301 0.000880367 13.3333 0H2.66667C2.25333 0 1.88444 0.191111 1.64 0.484445L0.408889 1.97778C0.151111 2.28889 0 2.68 0 3.11111V14.2222C0 15.2044 0.795556 16 1.77778 16H14.2222C15.2044 16 16 15.2044 16 14.2222V3.11111C16 2.68 15.8489 2.28889 15.5956 1.97778ZM8 12.8889L3.11111 8H6.22222V6.22222H9.77778V8H12.8889L8 12.8889ZM1.88889 1.77778L2.61333 0.888889H13.28L14.1111 1.77778H1.88889Z" />
</svg>
