<svg width="26" height="24" viewBox="0 0 26 24" fill="none" xmlns="http://www.w3.org/2000/svg">
<g clip-path="url(#clip0_3718_190945)">
<path d="M16.1734 14H15.3499L15.0581 13.73C16.0796 12.59 16.6946 11.11 16.6946 9.5C16.6946 5.91 13.6613 3 9.91904 3C6.17682 3 3.14343 5.91 3.14343 9.5C3.14343 13.09 6.17682 16 9.91904 16C11.5973 16 13.1401 15.41 14.3284 14.43L14.6098 14.71V15.5L19.8218 20.49L21.375 19L16.1734 14ZM9.91904 14C7.32346 14 5.22823 11.99 5.22823 9.5C5.22823 7.01 7.32346 5 9.91904 5C12.5146 5 14.6098 7.01 14.6098 9.5C14.6098 11.99 12.5146 14 9.91904 14Z" fill="white"/>
</g>
<defs>
<clipPath id="clip0_3718_190945">
<rect x="0.0162354" width="25.0176" height="24" rx="12" fill="white"/>
</clipPath>
</defs>
</svg>
