<svg width="17" height="18" viewBox="0 0 17 18" fill="none" xmlns="http://www.w3.org/2000/svg">
<path d="M4.35355 0.146447C4.15829 -0.0488155 3.84171 -0.0488155 3.64645 0.146447L0.464466 3.32843C0.269204 3.52369 0.269204 3.84027 0.464466 4.03553C0.659728 4.2308 0.976311 4.2308 1.17157 4.03553L4 1.20711L6.82843 4.03553C7.02369 4.2308 7.34027 4.2308 7.53553 4.03553C7.7308 3.84027 7.7308 3.52369 7.53553 3.32843L4.35355 0.146447ZM12.6464 17.8536C12.8417 18.0488 13.1583 18.0488 13.3536 17.8536L16.5355 14.6716C16.7308 14.4763 16.7308 14.1597 16.5355 13.9645C16.3403 13.7692 16.0237 13.7692 15.8284 13.9645L13 16.7929L10.1716 13.9645C9.97631 13.7692 9.65973 13.7692 9.46447 13.9645C9.2692 14.1597 9.2692 14.4763 9.46447 14.6716L12.6464 17.8536ZM4.5 17.5V0.5H3.5V17.5H4.5ZM12.5 0.5L12.5 17.5H13.5L13.5 0.5L12.5 0.5Z" fill="#C4C4C4"/>
</svg>
