<svg width="14" height="16" viewBox="0 0 14 16" fill="none" xmlns="http://www.w3.org/2000/svg">
<path d="M7.00016 12.6667C7.13202 12.6667 7.26091 12.6276 7.37054 12.5543C7.48018 12.4811 7.56562 12.377 7.61608 12.2551C7.66654 12.1333 7.67974 11.9993 7.65402 11.87C7.6283 11.7406 7.5648 11.6219 7.47157 11.5286C7.37833 11.4354 7.25954 11.3719 7.13022 11.3462C7.0009 11.3204 6.86686 11.3336 6.74504 11.3841C6.62322 11.4346 6.5191 11.52 6.44585 11.6296C6.3726 11.7393 6.3335 11.8682 6.3335 12C6.3335 12.1768 6.40373 12.3464 6.52876 12.4714C6.65378 12.5965 6.82335 12.6667 7.00016 12.6667ZM10.3335 12.6667C10.4654 12.6667 10.5942 12.6276 10.7039 12.5543C10.8135 12.4811 10.899 12.377 10.9494 12.2551C10.9999 12.1333 11.0131 11.9993 10.9874 11.87C10.9616 11.7406 10.8981 11.6219 10.8049 11.5286C10.7117 11.4354 10.5929 11.3719 10.4636 11.3462C10.3342 11.3204 10.2002 11.3336 10.0784 11.3841C9.95656 11.4346 9.85244 11.52 9.77918 11.6296C9.70593 11.7393 9.66683 11.8682 9.66683 12C9.66683 12.1768 9.73707 12.3464 9.86209 12.4714C9.98711 12.5965 10.1567 12.6667 10.3335 12.6667ZM10.3335 10C10.4654 10 10.5942 9.96092 10.7039 9.88767C10.8135 9.81441 10.899 9.71029 10.9494 9.58848C10.9999 9.46666 11.0131 9.33261 10.9874 9.20329C10.9616 9.07397 10.8981 8.95518 10.8049 8.86195C10.7117 8.76871 10.5929 8.70522 10.4636 8.6795C10.3342 8.65377 10.2002 8.66698 10.0784 8.71743C9.95656 8.76789 9.85244 8.85334 9.77918 8.96297C9.70593 9.07261 9.66683 9.2015 9.66683 9.33335C9.66683 9.51017 9.73707 9.67974 9.86209 9.80476C9.98711 9.92978 10.1567 10 10.3335 10ZM7.00016 10C7.13202 10 7.26091 9.96092 7.37054 9.88767C7.48018 9.81441 7.56562 9.71029 7.61608 9.58848C7.66654 9.46666 7.67974 9.33261 7.65402 9.20329C7.6283 9.07397 7.5648 8.95518 7.47157 8.86195C7.37833 8.76871 7.25954 8.70522 7.13022 8.6795C7.0009 8.65377 6.86686 8.66698 6.74504 8.71743C6.62322 8.76789 6.5191 8.85334 6.44585 8.96297C6.3726 9.07261 6.3335 9.2015 6.3335 9.33335C6.3335 9.51017 6.40373 9.67974 6.52876 9.80476C6.65378 9.92978 6.82335 10 7.00016 10ZM11.6668 2.00002H11.0002V1.33335C11.0002 1.15654 10.9299 0.986973 10.8049 0.861949C10.6799 0.736925 10.5103 0.666687 10.3335 0.666687C10.1567 0.666687 9.98711 0.736925 9.86209 0.861949C9.73707 0.986973 9.66683 1.15654 9.66683 1.33335V2.00002H4.3335V1.33335C4.3335 1.15654 4.26326 0.986973 4.13823 0.861949C4.01321 0.736925 3.84364 0.666687 3.66683 0.666687C3.49002 0.666687 3.32045 0.736925 3.19542 0.861949C3.0704 0.986973 3.00016 1.15654 3.00016 1.33335V2.00002H2.3335C1.80306 2.00002 1.29436 2.21073 0.919283 2.58581C0.54421 2.96088 0.333496 3.46959 0.333496 4.00002V13.3334C0.333496 13.8638 0.54421 14.3725 0.919283 14.7476C1.29436 15.1226 1.80306 15.3334 2.3335 15.3334H11.6668C12.1973 15.3334 12.706 15.1226 13.081 14.7476C13.4561 14.3725 13.6668 13.8638 13.6668 13.3334V4.00002C13.6668 3.46959 13.4561 2.96088 13.081 2.58581C12.706 2.21073 12.1973 2.00002 11.6668 2.00002ZM12.3335 13.3334C12.3335 13.5102 12.2633 13.6797 12.1382 13.8048C12.0132 13.9298 11.8436 14 11.6668 14H2.3335C2.15668 14 1.98712 13.9298 1.86209 13.8048C1.73707 13.6797 1.66683 13.5102 1.66683 13.3334V7.33335H12.3335V13.3334ZM12.3335 6.00002H1.66683V4.00002C1.66683 3.82321 1.73707 3.65364 1.86209 3.52862C1.98712 3.40359 2.15668 3.33335 2.3335 3.33335H3.00016V4.00002C3.00016 4.17683 3.0704 4.3464 3.19542 4.47143C3.32045 4.59645 3.49002 4.66669 3.66683 4.66669C3.84364 4.66669 4.01321 4.59645 4.13823 4.47143C4.26326 4.3464 4.3335 4.17683 4.3335 4.00002V3.33335H9.66683V4.00002C9.66683 4.17683 9.73707 4.3464 9.86209 4.47143C9.98711 4.59645 10.1567 4.66669 10.3335 4.66669C10.5103 4.66669 10.6799 4.59645 10.8049 4.47143C10.9299 4.3464 11.0002 4.17683 11.0002 4.00002V3.33335H11.6668C11.8436 3.33335 12.0132 3.40359 12.1382 3.52862C12.2633 3.65364 12.3335 3.82321 12.3335 4.00002V6.00002ZM3.66683 10C3.79868 10 3.92758 9.96092 4.03721 9.88767C4.14684 9.81441 4.23229 9.71029 4.28275 9.58848C4.33321 9.46666 4.34641 9.33261 4.32069 9.20329C4.29496 9.07397 4.23147 8.95518 4.13823 8.86195C4.045 8.76871 3.92621 8.70522 3.79689 8.6795C3.66757 8.65377 3.53352 8.66698 3.41171 8.71743C3.28989 8.76789 3.18577 8.85334 3.11252 8.96297C3.03926 9.07261 3.00016 9.2015 3.00016 9.33335C3.00016 9.51017 3.0704 9.67974 3.19542 9.80476C3.32045 9.92978 3.49002 10 3.66683 10ZM3.66683 12.6667C3.79868 12.6667 3.92758 12.6276 4.03721 12.5543C4.14684 12.4811 4.23229 12.377 4.28275 12.2551C4.33321 12.1333 4.34641 11.9993 4.32069 11.87C4.29496 11.7406 4.23147 11.6219 4.13823 11.5286C4.045 11.4354 3.92621 11.3719 3.79689 11.3462C3.66757 11.3204 3.53352 11.3336 3.41171 11.3841C3.28989 11.4346 3.18577 11.52 3.11252 11.6296C3.03926 11.7393 3.00016 11.8682 3.00016 12C3.00016 12.1768 3.0704 12.3464 3.19542 12.4714C3.32045 12.5965 3.49002 12.6667 3.66683 12.6667Z" fill="#858585"/>
</svg>
