<svg width="102" height="101" viewBox="0 0 102 101" fill="var(--color-white)" xmlns="http://www.w3.org/2000/svg">
<path d="M1.19531 52.2557H17.6508V55.9445H1.19531V52.2557ZM1.19531 67.0309H17.6508V70.7197H1.19531V67.0309ZM1.19531 74.4086H17.6508V78.0975H1.19531V74.4086ZM1.19531 30.083H17.6508V33.7719H1.19531V30.083ZM1.19531 37.4805H17.6508V41.1693H1.19531V37.4805ZM1.19531 44.8582H17.6508V48.5471H1.19531V44.8582ZM1.19531 59.6334H17.6508V63.3223H1.19531V59.6334ZM1.19531 81.806H17.6508V85.4949H1.19531V81.806ZM1.19531 89.1838H17.6508V93.0699H1.19531V89.1838Z" />
<path d="M21.9736 15.3064H38.4291V18.9953H21.9736V15.3064ZM21.9736 44.8568H38.4291V48.5457H21.9736V44.8568ZM21.9736 52.2543H38.4291V55.9432H21.9736V52.2543ZM21.9736 22.7039H38.4291V26.3928H21.9736V22.7039ZM21.9736 89.1824H38.4291V93.0685H21.9736V89.1824ZM21.9736 81.8047H38.4291V85.4935H21.9736V81.8047ZM21.9736 30.0816H38.4291V33.7705H21.9736V30.0816ZM21.9736 74.4072H38.4291V78.0961H21.9736V74.4072ZM21.9736 59.632H38.4291V63.3209H21.9736V59.632ZM21.9736 67.0295H38.4291V70.7183H21.9736V67.0295ZM21.9736 37.4791H38.4291V41.168H21.9736V37.4791ZM21.9736 7.92871H38.4291V11.6176H21.9736V7.92871Z" />
<path d="M42.7725 67.3057H59.2279V70.7184H42.7725V67.3057ZM42.7725 81.8047H59.2279V85.4936H42.7725V81.8047ZM42.7725 74.4072H59.2279V78.0961H42.7725V74.4072ZM42.7725 89.1824H59.2279V93.0685H42.7725V89.1824Z" />
<path d="M63.5508 44.8579H80.0062V48.5468H63.5508V44.8579ZM63.5508 81.8058H80.0062V85.4946H63.5508V81.8058ZM63.5508 89.1835H80.0062V93.0696H63.5508V89.1835ZM63.5508 74.4083H80.0062V78.0972H63.5508V74.4083ZM63.5508 59.6331H80.0062V63.322H63.5508V59.6331ZM63.5508 67.0306H80.0062V70.7194H63.5508V67.0306ZM63.5508 52.2554H80.0062V55.9442H63.5508V52.2554Z" />
<path d="M84.3491 52.256H100.805V55.9448H84.3491V52.256ZM84.3491 44.8585H100.805V48.5474H84.3491V44.8585ZM84.3491 37.4808H100.805V41.1696H84.3491V37.4808ZM84.3491 22.7056H100.805V26.3944H84.3491V22.7056ZM84.3491 15.3081H100.805V18.997H84.3491V15.3081ZM84.3491 30.0833H100.805V33.7722H84.3491V30.0833ZM84.3491 89.1841H100.805V93.0702H84.3491V89.1841ZM84.3491 67.0311H100.805V70.72H84.3491V67.0311ZM84.3491 74.4089H100.805V78.0978H84.3491V74.4089ZM84.3491 81.8063H100.805V85.4952H84.3491V81.8063ZM84.3491 59.6337H100.805V63.3226H84.3491V59.6337Z" />
</svg>
