<svg width="14" height="15" viewBox="0 0 14 15" fill="none" xmlns="http://www.w3.org/2000/svg">
<path d="M6.99968 0.833252C5.68114 0.833252 4.3922 1.22425 3.29588 1.95679C2.19955 2.68933 1.34506 3.73052 0.840481 4.9487C0.335896 6.16687 0.203874 7.50731 0.461109 8.80052C0.718344 10.0937 1.35328 11.2816 2.28563 12.214C3.21798 13.1463 4.40587 13.7813 5.69908 14.0385C6.99228 14.2957 8.33273 14.1637 9.5509 13.6591C10.7691 13.1545 11.8103 12.3 12.5428 11.2037C13.2754 10.1074 13.6663 8.81846 13.6663 7.49992C13.6663 6.62444 13.4939 5.75753 13.1589 4.9487C12.8238 4.13986 12.3328 3.40493 11.7137 2.78587C11.0947 2.16682 10.3597 1.67575 9.5509 1.34072C8.74206 1.00569 7.87516 0.833252 6.99968 0.833252ZM6.99968 12.8333C5.94484 12.8333 4.9137 12.5205 4.03664 11.9344C3.15957 11.3484 2.47599 10.5154 2.07232 9.5409C1.66865 8.56636 1.56304 7.494 1.76882 6.45944C1.97461 5.42487 2.48256 4.47456 3.22844 3.72868C3.97432 2.9828 4.92463 2.47485 5.9592 2.26906C6.99376 2.06328 8.06612 2.16889 9.04066 2.57256C10.0152 2.97623 10.8481 3.65982 11.4342 4.53688C12.0202 5.41394 12.333 6.44508 12.333 7.49992C12.333 8.91441 11.7711 10.271 10.7709 11.2712C9.77072 12.2713 8.41417 12.8333 6.99968 12.8333Z" fill="white"/>
<path d="M6.99967 5.50008C7.36786 5.50008 7.66634 5.2016 7.66634 4.83341C7.66634 4.46522 7.36786 4.16675 6.99967 4.16675C6.63148 4.16675 6.33301 4.46522 6.33301 4.83341C6.33301 5.2016 6.63148 5.50008 6.99967 5.50008Z" fill="white"/>
<path d="M6.99967 6.16675C6.82286 6.16675 6.65329 6.23699 6.52827 6.36201C6.40325 6.48703 6.33301 6.6566 6.33301 6.83341V10.1667C6.33301 10.3436 6.40325 10.5131 6.52827 10.6382C6.65329 10.7632 6.82286 10.8334 6.99967 10.8334C7.17649 10.8334 7.34605 10.7632 7.47108 10.6382C7.5961 10.5131 7.66634 10.3436 7.66634 10.1667V6.83341C7.66634 6.6566 7.5961 6.48703 7.47108 6.36201C7.34605 6.23699 7.17649 6.16675 6.99967 6.16675Z" fill="white"/>
</svg>
