<svg width="40" height="12" viewBox="0 0 44 12" fill="none" xmlns="http://www.w3.org/2000/svg">
<path d="M0.230469 9.64258C0.230469 9.22591 0.373698 8.8776 0.660156 8.59766C0.953125 8.31771 1.34049 8.17773 1.82227 8.17773C2.30404 8.17773 2.68815 8.31771 2.97461 8.59766C3.26758 8.8776 3.41406 9.22591 3.41406 9.64258C3.41406 10.0592 3.26758 10.4076 2.97461 10.6875C2.68815 10.9674 2.30404 11.1074 1.82227 11.1074C1.34049 11.1074 0.953125 10.9674 0.660156 10.6875C0.373698 10.4076 0.230469 10.0592 0.230469 9.64258ZM8.70703 2.62109V11H5.88477V0.433594H8.53125L8.70703 2.62109ZM8.31641 5.3457H7.53516C7.53516 4.61003 7.62305 3.93294 7.79883 3.31445C7.98112 2.68945 8.24479 2.14909 8.58984 1.69336C8.94141 1.23112 9.37435 0.873047 9.88867 0.619141C10.403 0.365234 10.9987 0.238281 11.6758 0.238281C12.1445 0.238281 12.5742 0.309896 12.9648 0.453125C13.3555 0.589844 13.6908 0.807943 13.9707 1.10742C14.2572 1.40039 14.4785 1.78451 14.6348 2.25977C14.791 2.72852 14.8691 3.29167 14.8691 3.94922V11H12.0566V4.26172C12.0566 3.77995 11.9915 3.40885 11.8613 3.14844C11.7311 2.88802 11.5456 2.70573 11.3047 2.60156C11.0703 2.4974 10.7871 2.44531 10.4551 2.44531C10.0905 2.44531 9.77148 2.52018 9.49805 2.66992C9.23112 2.81966 9.00977 3.02799 8.83398 3.29492C8.6582 3.55534 8.52799 3.86133 8.44336 4.21289C8.35872 4.56445 8.31641 4.94206 8.31641 5.3457ZM14.6055 5.02344L13.5996 5.15039C13.5996 4.46029 13.6842 3.81901 13.8535 3.22656C14.0293 2.63411 14.2865 2.11328 14.625 1.66406C14.9701 1.21484 15.3965 0.866536 15.9043 0.619141C16.4121 0.365234 16.998 0.238281 17.6621 0.238281C18.1699 0.238281 18.6322 0.313151 19.0488 0.462891C19.4655 0.60612 19.8203 0.83724 20.1133 1.15625C20.4128 1.46875 20.6406 1.87891 20.7969 2.38672C20.9596 2.89453 21.041 3.51628 21.041 4.25195V11H18.2188V4.25195C18.2188 3.76367 18.1536 3.39258 18.0234 3.13867C17.8997 2.87826 17.7174 2.69922 17.4766 2.60156C17.2422 2.4974 16.9622 2.44531 16.6367 2.44531C16.2982 2.44531 16.002 2.51367 15.748 2.65039C15.4941 2.7806 15.2826 2.96289 15.1133 3.19727C14.944 3.43164 14.8171 3.70508 14.7324 4.01758C14.6478 4.32357 14.6055 4.65885 14.6055 5.02344ZM22.7695 5.82422V5.61914C22.7695 4.8444 22.8802 4.13151 23.1016 3.48047C23.3229 2.82292 23.6452 2.25326 24.0684 1.77148C24.4915 1.28971 25.0124 0.915365 25.6309 0.648438C26.2493 0.375 26.959 0.238281 27.7598 0.238281C28.5605 0.238281 29.2734 0.375 29.8984 0.648438C30.5234 0.915365 31.0475 1.28971 31.4707 1.77148C31.9004 2.25326 32.2259 2.82292 32.4473 3.48047C32.6686 4.13151 32.7793 4.8444 32.7793 5.61914V5.82422C32.7793 6.59245 32.6686 7.30534 32.4473 7.96289C32.2259 8.61393 31.9004 9.18359 31.4707 9.67188C31.0475 10.1536 30.5267 10.528 29.9082 10.7949C29.2897 11.0618 28.5801 11.1953 27.7793 11.1953C26.9785 11.1953 26.2656 11.0618 25.6406 10.7949C25.0221 10.528 24.498 10.1536 24.0684 9.67188C23.6452 9.18359 23.3229 8.61393 23.1016 7.96289C22.8802 7.30534 22.7695 6.59245 22.7695 5.82422ZM25.582 5.61914V5.82422C25.582 6.26693 25.6211 6.68034 25.6992 7.06445C25.7773 7.44857 25.901 7.78711 26.0703 8.08008C26.2461 8.36654 26.474 8.59115 26.7539 8.75391C27.0339 8.91667 27.3757 8.99805 27.7793 8.99805C28.1699 8.99805 28.5052 8.91667 28.7852 8.75391C29.0651 8.59115 29.2897 8.36654 29.459 8.08008C29.6283 7.78711 29.752 7.44857 29.8301 7.06445C29.9147 6.68034 29.957 6.26693 29.957 5.82422V5.61914C29.957 5.18945 29.9147 4.78581 29.8301 4.4082C29.752 4.02409 29.625 3.68555 29.4492 3.39258C29.2799 3.0931 29.0553 2.85872 28.7754 2.68945C28.4954 2.52018 28.1569 2.43555 27.7598 2.43555C27.3626 2.43555 27.0241 2.52018 26.7441 2.68945C26.4707 2.85872 26.2461 3.0931 26.0703 3.39258C25.901 3.68555 25.7773 4.02409 25.6992 4.4082C25.6211 4.78581 25.582 5.18945 25.582 5.61914ZM37.9453 8.94922L40.2891 0.433594H43.2285L39.6641 11H37.8867L37.9453 8.94922ZM36.334 0.433594L38.6875 8.95898L38.7363 11H36.9492L33.3848 0.433594H36.334Z" fill="white"/>
</svg>
