<svg width="37" height="16" viewBox="0 0 37 16" fill="none" xmlns="http://www.w3.org/2000/svg">
<path d="M0.984375 10.9141C0.984375 10.5807 1.09896 10.3021 1.32812 10.0781C1.5625 9.85417 1.8724 9.74219 2.25781 9.74219C2.64323 9.74219 2.95052 9.85417 3.17969 10.0781C3.41406 10.3021 3.53125 10.5807 3.53125 10.9141C3.53125 11.2474 3.41406 11.526 3.17969 11.75C2.95052 11.974 2.64323 12.0859 2.25781 12.0859C1.8724 12.0859 1.5625 11.974 1.32812 11.75C1.09896 11.526 0.984375 11.2474 0.984375 10.9141ZM7.76562 5.29688V12H5.50781V3.54688H7.625L7.76562 5.29688ZM7.45312 7.47656H6.82812C6.82812 6.88802 6.89844 6.34635 7.03906 5.85156C7.1849 5.35156 7.39583 4.91927 7.67188 4.55469C7.95312 4.1849 8.29948 3.89844 8.71094 3.69531C9.1224 3.49219 9.59896 3.39062 10.1406 3.39062C10.5156 3.39062 10.8594 3.44792 11.1719 3.5625C11.4844 3.67188 11.7526 3.84635 11.9766 4.08594C12.2057 4.32031 12.3828 4.6276 12.5078 5.00781C12.6328 5.38281 12.6953 5.83333 12.6953 6.35938V12H10.4453V6.60938C10.4453 6.22396 10.3932 5.92708 10.2891 5.71875C10.1849 5.51042 10.0365 5.36458 9.84375 5.28125C9.65625 5.19792 9.42969 5.15625 9.16406 5.15625C8.8724 5.15625 8.61719 5.21615 8.39844 5.33594C8.1849 5.45573 8.00781 5.6224 7.86719 5.83594C7.72656 6.04427 7.6224 6.28906 7.55469 6.57031C7.48698 6.85156 7.45312 7.15365 7.45312 7.47656ZM12.4844 7.21875L11.6797 7.32031C11.6797 6.76823 11.7474 6.25521 11.8828 5.78125C12.0234 5.30729 12.2292 4.89062 12.5 4.53125C12.776 4.17188 13.1172 3.89323 13.5234 3.69531C13.9297 3.49219 14.3984 3.39062 14.9297 3.39062C15.3359 3.39062 15.7057 3.45052 16.0391 3.57031C16.3724 3.6849 16.6562 3.86979 16.8906 4.125C17.1302 4.375 17.3125 4.70312 17.4375 5.10938C17.5677 5.51562 17.6328 6.01302 17.6328 6.60156V12H15.375V6.60156C15.375 6.21094 15.3229 5.91406 15.2188 5.71094C15.1198 5.5026 14.974 5.35938 14.7812 5.28125C14.5938 5.19792 14.3698 5.15625 14.1094 5.15625C13.8385 5.15625 13.6016 5.21094 13.3984 5.32031C13.1953 5.42448 13.026 5.57031 12.8906 5.75781C12.7552 5.94531 12.6536 6.16406 12.5859 6.41406C12.5182 6.65885 12.4844 6.92708 12.4844 7.21875ZM21.625 5.17188V15.25H19.375V3.54688H21.4609L21.625 5.17188ZM26.9766 7.67969V7.84375C26.9766 8.45833 26.9036 9.02865 26.7578 9.55469C26.6172 10.0807 26.4089 10.5391 26.1328 10.9297C25.8568 11.3151 25.513 11.6172 25.1016 11.8359C24.6953 12.0495 24.2266 12.1562 23.6953 12.1562C23.1797 12.1562 22.7318 12.0521 22.3516 11.8438C21.9714 11.6354 21.651 11.3438 21.3906 10.9688C21.1354 10.5885 20.9297 10.1484 20.7734 9.64844C20.6172 9.14844 20.4974 8.61198 20.4141 8.03906V7.60938C20.4974 6.99479 20.6172 6.43229 20.7734 5.92188C20.9297 5.40625 21.1354 4.96094 21.3906 4.58594C21.651 4.20573 21.9688 3.91146 22.3438 3.70312C22.724 3.49479 23.1693 3.39062 23.6797 3.39062C24.2161 3.39062 24.6875 3.49219 25.0938 3.69531C25.5052 3.89844 25.849 4.1901 26.125 4.57031C26.4062 4.95052 26.6172 5.40365 26.7578 5.92969C26.9036 6.45573 26.9766 7.03906 26.9766 7.67969ZM24.7188 7.84375V7.67969C24.7188 7.32031 24.6875 6.98958 24.625 6.6875C24.5677 6.38021 24.474 6.11198 24.3438 5.88281C24.2188 5.65365 24.0521 5.47656 23.8438 5.35156C23.6406 5.22135 23.3932 5.15625 23.1016 5.15625C22.7943 5.15625 22.5312 5.20573 22.3125 5.30469C22.099 5.40365 21.9245 5.54688 21.7891 5.73438C21.6536 5.92188 21.5521 6.14583 21.4844 6.40625C21.4167 6.66667 21.375 6.96094 21.3594 7.28906V8.375C21.3854 8.76042 21.4583 9.10677 21.5781 9.41406C21.6979 9.71615 21.8828 9.95573 22.1328 10.1328C22.3828 10.3099 22.7109 10.3984 23.1172 10.3984C23.4141 10.3984 23.6641 10.3333 23.8672 10.2031C24.0703 10.0677 24.2344 9.88281 24.3594 9.64844C24.4896 9.41406 24.5807 9.14323 24.6328 8.83594C24.6901 8.52865 24.7188 8.19792 24.7188 7.84375ZM36.25 7.75V9.51562H28.0547L27.9453 8.14844L32.6875 0.625H34.4766L32.5391 3.86719L30.1797 7.75H36.25ZM34.9609 0.625V12H32.7109V0.625H34.9609Z" fill="white"/>
</svg>
