<svg width="80" height="65" viewBox="0 0 80 65" fill="none" xmlns="http://www.w3.org/2000/svg">
<path d="M1.55469 49.625H3.53906L6.46094 57.9766L9.38281 49.625H11.3672L7.25781 61H5.66406L1.55469 49.625ZM0.484375 49.625H2.46094L2.82031 57.7656V61H0.484375V49.625ZM10.4609 49.625H12.4453V61H10.1016V57.7656L10.4609 49.625ZM19.3594 58.9766V52.5469H21.6094V61H19.4922L19.3594 58.9766ZM19.6094 57.2422L20.2734 57.2266C20.2734 57.7891 20.2083 58.3125 20.0781 58.7969C19.9479 59.276 19.7526 59.6927 19.4922 60.0469C19.2318 60.3958 18.9036 60.6693 18.5078 60.8672C18.112 61.0599 17.6458 61.1562 17.1094 61.1562C16.6979 61.1562 16.3177 61.099 15.9688 60.9844C15.625 60.8646 15.3281 60.6797 15.0781 60.4297C14.8333 60.1745 14.6406 59.849 14.5 59.4531C14.3646 59.0521 14.2969 58.5703 14.2969 58.0078V52.5469H16.5469V58.0234C16.5469 58.2734 16.5755 58.4844 16.6328 58.6562C16.6953 58.8281 16.7812 58.9688 16.8906 59.0781C17 59.1875 17.1276 59.2656 17.2734 59.3125C17.4245 59.3594 17.5911 59.3828 17.7734 59.3828C18.237 59.3828 18.6016 59.2891 18.8672 59.1016C19.138 58.9141 19.3281 58.6589 19.4375 58.3359C19.5521 58.0078 19.6094 57.6432 19.6094 57.2422ZM27.8984 58.6641C27.8984 58.5026 27.8516 58.3568 27.7578 58.2266C27.6641 58.0964 27.4896 57.9766 27.2344 57.8672C26.9844 57.7526 26.6224 57.6484 26.1484 57.5547C25.7214 57.4609 25.3229 57.3438 24.9531 57.2031C24.5885 57.0573 24.2708 56.8828 24 56.6797C23.7344 56.4766 23.526 56.237 23.375 55.9609C23.224 55.6797 23.1484 55.3594 23.1484 55C23.1484 54.6458 23.224 54.3125 23.375 54C23.5312 53.6875 23.7526 53.4115 24.0391 53.1719C24.3307 52.9271 24.6849 52.737 25.1016 52.6016C25.5234 52.4609 25.9974 52.3906 26.5234 52.3906C27.2578 52.3906 27.888 52.5078 28.4141 52.7422C28.9453 52.9766 29.3516 53.2995 29.6328 53.7109C29.9193 54.1172 30.0625 54.5807 30.0625 55.1016H27.8125C27.8125 54.8828 27.7656 54.6875 27.6719 54.5156C27.5833 54.3385 27.4427 54.2005 27.25 54.1016C27.0625 53.9974 26.8177 53.9453 26.5156 53.9453C26.2656 53.9453 26.0495 53.9896 25.8672 54.0781C25.6849 54.1615 25.5443 54.276 25.4453 54.4219C25.3516 54.5625 25.3047 54.7188 25.3047 54.8906C25.3047 55.0208 25.3307 55.138 25.3828 55.2422C25.4401 55.3411 25.5312 55.4323 25.6562 55.5156C25.7812 55.599 25.9427 55.6771 26.1406 55.75C26.3438 55.8177 26.5938 55.8802 26.8906 55.9375C27.5 56.0625 28.0443 56.2266 28.5234 56.4297C29.0026 56.6276 29.3828 56.8984 29.6641 57.2422C29.9453 57.5807 30.0859 58.026 30.0859 58.5781C30.0859 58.9531 30.0026 59.2969 29.8359 59.6094C29.6693 59.9219 29.4297 60.1953 29.1172 60.4297C28.8047 60.6589 28.4297 60.8385 27.9922 60.9688C27.5599 61.0938 27.0729 61.1562 26.5312 61.1562C25.7448 61.1562 25.0781 61.0156 24.5312 60.7344C23.9896 60.4531 23.5781 60.0964 23.2969 59.6641C23.0208 59.2266 22.8828 58.7786 22.8828 58.3203H25.0156C25.026 58.6276 25.1042 58.875 25.25 59.0625C25.401 59.25 25.5911 59.3854 25.8203 59.4688C26.0547 59.5521 26.3073 59.5938 26.5781 59.5938C26.8698 59.5938 27.112 59.5547 27.3047 59.4766C27.4974 59.3932 27.6432 59.2839 27.7422 59.1484C27.8464 59.0078 27.8984 58.8464 27.8984 58.6641ZM33.9219 52.5469V61H31.6641V52.5469H33.9219ZM31.5234 50.3438C31.5234 50.0156 31.638 49.7448 31.8672 49.5312C32.0964 49.3177 32.4036 49.2109 32.7891 49.2109C33.1693 49.2109 33.474 49.3177 33.7031 49.5312C33.9375 49.7448 34.0547 50.0156 34.0547 50.3438C34.0547 50.6719 33.9375 50.9427 33.7031 51.1562C33.474 51.3698 33.1693 51.4766 32.7891 51.4766C32.4036 51.4766 32.0964 51.3698 31.8672 51.1562C31.638 50.9427 31.5234 50.6719 31.5234 50.3438ZM39.2734 59.3984C39.5495 59.3984 39.7943 59.3464 40.0078 59.2422C40.2214 59.1328 40.388 58.9818 40.5078 58.7891C40.6328 58.5911 40.6979 58.3594 40.7031 58.0938H42.8203C42.8151 58.6875 42.6562 59.2161 42.3438 59.6797C42.0312 60.138 41.612 60.5 41.0859 60.7656C40.5599 61.026 39.9714 61.1562 39.3203 61.1562C38.6641 61.1562 38.0911 61.0469 37.6016 60.8281C37.1172 60.6094 36.7135 60.3073 36.3906 59.9219C36.0677 59.5312 35.8255 59.0781 35.6641 58.5625C35.5026 58.0417 35.4219 57.4844 35.4219 56.8906V56.6641C35.4219 56.0651 35.5026 55.5078 35.6641 54.9922C35.8255 54.4714 36.0677 54.0182 36.3906 53.6328C36.7135 53.2422 37.1172 52.9375 37.6016 52.7188C38.0859 52.5 38.6536 52.3906 39.3047 52.3906C39.9974 52.3906 40.6042 52.5234 41.125 52.7891C41.651 53.0547 42.0625 53.4349 42.3594 53.9297C42.6615 54.4193 42.8151 55 42.8203 55.6719H40.7031C40.6979 55.3906 40.638 55.1354 40.5234 54.9062C40.4141 54.6771 40.2526 54.4948 40.0391 54.3594C39.8307 54.2188 39.5729 54.1484 39.2656 54.1484C38.9375 54.1484 38.6693 54.2188 38.4609 54.3594C38.2526 54.4948 38.0911 54.6823 37.9766 54.9219C37.862 55.1562 37.7812 55.4245 37.7344 55.7266C37.6927 56.0234 37.6719 56.3359 37.6719 56.6641V56.8906C37.6719 57.2188 37.6927 57.5339 37.7344 57.8359C37.776 58.138 37.8542 58.4062 37.9688 58.6406C38.0885 58.875 38.2526 59.0599 38.4609 59.1953C38.6693 59.3307 38.9401 59.3984 39.2734 59.3984ZM57.5938 55.0469V55.5859C57.5938 56.4505 57.4766 57.2266 57.2422 57.9141C57.0078 58.6016 56.6771 59.1875 56.25 59.6719C55.8229 60.151 55.3125 60.5182 54.7188 60.7734C54.1302 61.0286 53.4766 61.1562 52.7578 61.1562C52.0443 61.1562 51.3906 61.0286 50.7969 60.7734C50.2083 60.5182 49.6979 60.151 49.2656 59.6719C48.8333 59.1875 48.4974 58.6016 48.2578 57.9141C48.0234 57.2266 47.9062 56.4505 47.9062 55.5859V55.0469C47.9062 54.1771 48.0234 53.401 48.2578 52.7188C48.4922 52.0312 48.8229 51.4453 49.25 50.9609C49.6823 50.4766 50.1927 50.1068 50.7812 49.8516C51.375 49.5964 52.0286 49.4688 52.7422 49.4688C53.4609 49.4688 54.1146 49.5964 54.7031 49.8516C55.2969 50.1068 55.8073 50.4766 56.2344 50.9609C56.6667 51.4453 57 52.0312 57.2344 52.7188C57.474 53.401 57.5938 54.1771 57.5938 55.0469ZM55.2266 55.5859V55.0312C55.2266 54.4271 55.1719 53.8958 55.0625 53.4375C54.9531 52.9792 54.7917 52.5938 54.5781 52.2812C54.3646 51.9688 54.1042 51.7344 53.7969 51.5781C53.4896 51.4167 53.138 51.3359 52.7422 51.3359C52.3464 51.3359 51.9948 51.4167 51.6875 51.5781C51.3854 51.7344 51.1276 51.9688 50.9141 52.2812C50.7057 52.5938 50.5469 52.9792 50.4375 53.4375C50.3281 53.8958 50.2734 54.4271 50.2734 55.0312V55.5859C50.2734 56.1849 50.3281 56.7161 50.4375 57.1797C50.5469 57.638 50.7083 58.026 50.9219 58.3438C51.1354 58.6562 51.3958 58.8932 51.7031 59.0547C52.0104 59.2161 52.362 59.2969 52.7578 59.2969C53.1536 59.2969 53.5052 59.2161 53.8125 59.0547C54.1198 58.8932 54.3776 58.6562 54.5859 58.3438C54.7943 58.026 54.9531 57.638 55.0625 57.1797C55.1719 56.7161 55.2266 56.1849 55.2266 55.5859ZM61.3438 54.3516V61H59.0938V52.5469H61.2031L61.3438 54.3516ZM61.0156 56.4766H60.4062C60.4062 55.8516 60.487 55.2891 60.6484 54.7891C60.8099 54.2839 61.0365 53.8542 61.3281 53.5C61.6198 53.1406 61.9661 52.8672 62.3672 52.6797C62.7734 52.487 63.2266 52.3906 63.7266 52.3906C64.1224 52.3906 64.4844 52.4479 64.8125 52.5625C65.1406 52.6771 65.4219 52.8594 65.6562 53.1094C65.8958 53.3594 66.0781 53.6901 66.2031 54.1016C66.3333 54.513 66.3984 55.0156 66.3984 55.6094V61H64.1328V55.6016C64.1328 55.2266 64.0807 54.9349 63.9766 54.7266C63.8724 54.5182 63.7188 54.3724 63.5156 54.2891C63.3177 54.2005 63.0729 54.1562 62.7812 54.1562C62.4792 54.1562 62.2161 54.2161 61.9922 54.3359C61.7734 54.4557 61.5911 54.6224 61.4453 54.8359C61.3047 55.0443 61.1979 55.2891 61.125 55.5703C61.0521 55.8516 61.0156 56.1536 61.0156 56.4766ZM70.4844 49V61H68.2266V49H70.4844ZM74.8516 60.0469L77.0938 52.5469H79.5078L76.1094 62.2734C76.0365 62.487 75.9375 62.7161 75.8125 62.9609C75.6927 63.2057 75.5286 63.4375 75.3203 63.6562C75.1172 63.8802 74.8594 64.0625 74.5469 64.2031C74.2396 64.3438 73.862 64.4141 73.4141 64.4141C73.2005 64.4141 73.026 64.401 72.8906 64.375C72.7552 64.349 72.5938 64.3125 72.4062 64.2656V62.6172C72.4635 62.6172 72.5234 62.6172 72.5859 62.6172C72.6484 62.6224 72.7083 62.625 72.7656 62.625C73.0625 62.625 73.3047 62.5911 73.4922 62.5234C73.6797 62.4557 73.8307 62.3516 73.9453 62.2109C74.0599 62.0755 74.151 61.8984 74.2188 61.6797L74.8516 60.0469ZM73.9141 52.5469L75.75 58.6719L76.0703 61.0547L74.5391 61.2188L71.5 52.5469H73.9141Z" fill="white"/>
<path d="M57.6769 0.206757C57.4462 0.0171011 57.1692 -0.0303127 56.8923 0.0171013L34.7385 4.7585C34.3231 4.85333 34 5.23264 34 5.70678V25.0517C32.7538 23.6293 30.9538 22.7758 28.9231 22.7758C25.0923 22.7758 22 25.9525 22 29.8879C22 33.8233 25.0923 37 28.9231 37C32.7538 37 35.8462 33.8233 35.8462 29.8879V13.0559L56.1538 8.69386V20.2629C54.9077 18.8405 53.0615 17.987 51.0769 17.987C47.2462 17.987 44.1538 21.1637 44.1538 25.0991C44.1538 29.0345 47.2462 32.2112 51.0769 32.2112C54.9077 32.2112 58 29.0345 58 25.0991V0.917967C58 0.633483 57.8615 0.348999 57.6769 0.206757ZM28.9231 35.056C26.1077 35.056 23.8462 32.7327 23.8462 29.8405C23.8462 26.9482 26.1077 24.625 28.9231 24.625C31.7385 24.625 34 26.9482 34 29.8405C34 32.7327 31.7385 35.056 28.9231 35.056ZM51.0769 30.3146C48.2615 30.3146 46 27.9913 46 25.0991C46 22.2068 48.2615 19.8836 51.0769 19.8836C53.8923 19.8836 56.1538 22.2068 56.1538 25.0991C56.1538 27.9913 53.8923 30.3146 51.0769 30.3146ZM56.1538 6.7973L35.8462 11.1594V6.4654L56.1538 2.10332V6.7973Z" fill="white"/>
</svg>