<svg width="33" height="10" viewBox="0 0 33 10" fill="none" xmlns="http://www.w3.org/2000/svg">
<path d="M0.984375 7.91406C0.984375 7.58073 1.09896 7.30208 1.32812 7.07812C1.5625 6.85417 1.8724 6.74219 2.25781 6.74219C2.64323 6.74219 2.95052 6.85417 3.17969 7.07812C3.41406 7.30208 3.53125 7.58073 3.53125 7.91406C3.53125 8.2474 3.41406 8.52604 3.17969 8.75C2.95052 8.97396 2.64323 9.08594 2.25781 9.08594C1.8724 9.08594 1.5625 8.97396 1.32812 8.75C1.09896 8.52604 0.984375 8.2474 0.984375 7.91406ZM7.92969 6.8125L9.6875 0.546875H11.1172L10.6562 3.00781L8.89844 9H7.70312L7.92969 6.8125ZM7.03906 0.546875L8.29688 6.80469L8.41406 9H7.00781L4.86719 0.546875H7.03906ZM12.7266 6.70312L13.9531 0.546875H16.1328L13.9922 9H12.5938L12.7266 6.70312ZM11.3125 0.546875L13.0625 6.76562L13.3047 9H12.1016L10.3438 3.01562L9.89844 0.546875H11.3125ZM21.8281 7.09375V3.32812C21.8281 3.05729 21.7839 2.82552 21.6953 2.63281C21.6068 2.4349 21.4688 2.28125 21.2812 2.17188C21.099 2.0625 20.862 2.00781 20.5703 2.00781C20.3203 2.00781 20.1042 2.05208 19.9219 2.14062C19.7396 2.22396 19.599 2.34635 19.5 2.50781C19.401 2.66406 19.3516 2.84896 19.3516 3.0625H17.1016C17.1016 2.70312 17.1849 2.36198 17.3516 2.03906C17.5182 1.71615 17.7604 1.43229 18.0781 1.1875C18.3958 0.9375 18.7734 0.742188 19.2109 0.601562C19.6536 0.460938 20.1484 0.390625 20.6953 0.390625C21.3516 0.390625 21.9349 0.5 22.4453 0.71875C22.9557 0.9375 23.3568 1.26562 23.6484 1.70312C23.9453 2.14062 24.0938 2.6875 24.0938 3.34375V6.96094C24.0938 7.42448 24.1224 7.80469 24.1797 8.10156C24.237 8.39323 24.3203 8.64844 24.4297 8.86719V9H22.1562C22.0469 8.77083 21.9635 8.48438 21.9062 8.14062C21.8542 7.79167 21.8281 7.44271 21.8281 7.09375ZM22.125 3.85156L22.1406 5.125H20.8828C20.5859 5.125 20.3281 5.15885 20.1094 5.22656C19.8906 5.29427 19.7109 5.39062 19.5703 5.51562C19.4297 5.63542 19.3255 5.77604 19.2578 5.9375C19.1953 6.09896 19.1641 6.27604 19.1641 6.46875C19.1641 6.66146 19.2083 6.83594 19.2969 6.99219C19.3854 7.14323 19.513 7.26302 19.6797 7.35156C19.8464 7.4349 20.0417 7.47656 20.2656 7.47656C20.6042 7.47656 20.8984 7.40885 21.1484 7.27344C21.3984 7.13802 21.5911 6.97135 21.7266 6.77344C21.8672 6.57552 21.9401 6.38802 21.9453 6.21094L22.5391 7.16406C22.4557 7.3776 22.3411 7.59896 22.1953 7.82812C22.0547 8.05729 21.875 8.27344 21.6562 8.47656C21.4375 8.67448 21.1745 8.83854 20.8672 8.96875C20.5599 9.09375 20.1953 9.15625 19.7734 9.15625C19.237 9.15625 18.75 9.04948 18.3125 8.83594C17.8802 8.61719 17.5365 8.31771 17.2812 7.9375C17.0312 7.55208 16.9062 7.11458 16.9062 6.625C16.9062 6.18229 16.9896 5.78906 17.1562 5.44531C17.3229 5.10156 17.5677 4.8125 17.8906 4.57812C18.2188 4.33854 18.6276 4.15885 19.1172 4.03906C19.6068 3.91406 20.1745 3.85156 20.8203 3.85156H22.125ZM28.5781 7.35938L30.4531 0.546875H32.8047L29.9531 9H28.5312L28.5781 7.35938ZM27.2891 0.546875L29.1719 7.36719L29.2109 9H27.7812L24.9297 0.546875H27.2891Z" fill="white"/>
</svg>
